<svg width="48" height="48" viewBox="0 0 48 48" fill="none" xmlns="http://www.w3.org/2000/svg">
<rect width="48" height="48" fill="white"/>
<path d="M24.8192 43.9963C22.526 43.9963 20.2144 43.6487 18.0246 42.9054C14.4389 41.6888 3.14655 36.3046 8.34592 18.1515C10.3363 11.2068 13.981 6.7471 19.1767 4.89814C28.9071 1.43688 40.0259 9.0731 40.4949 9.39852C42.0865 10.5079 42.4779 12.6971 41.3701 14.2909C40.2659 15.881 38.0835 16.273 36.492 15.171C34.1028 13.5217 26.7579 9.64628 21.5142 11.5248C18.5785 12.575 16.4182 15.4594 15.0926 20.0929C13.3754 26.0799 12.8843 33.742 20.2808 36.2528C26.1708 38.2534 33.7113 35.6575 35.0444 32.2628C35.7534 30.4582 37.7881 29.567 39.5939 30.277C41.3959 30.987 42.2859 33.0246 41.5769 34.8328C39.3945 40.3945 32.2121 44 24.8229 44L24.8192 43.9963Z" fill="#FF6B00"/>
</svg>
