<svg width="31" height="31" viewBox="0 0 31 31" fill="none" xmlns="http://www.w3.org/2000/svg">
<path d="M15.5 7.10413C6.80837 7.10413 0 10.7918 0 15.5C0 20.2081 6.80837 23.8958 15.5 23.8958C24.1916 23.8958 31 20.2081 31 15.5C31 10.7918 24.1916 7.10413 15.5 7.10413ZM13.8906 9.68746H15.5827L15.0453 12.2708H16.5566C17.515 12.2708 18.1582 12.4051 18.5251 12.7397C18.8829 13.0703 18.9914 13.6128 18.848 14.3517L18.1763 17.4375H16.4558L17.0745 14.5842C17.1495 14.1928 17.1197 13.9203 16.988 13.7769C16.8575 13.6335 16.5695 13.5625 16.1381 13.5625H14.7831L13.9655 17.4375H12.2708L13.8906 9.68746ZM6.45833 12.2708H9.90192C11.5436 12.2708 12.5382 13.3713 12.1494 15.013C11.6973 16.9208 10.4883 17.4375 8.2615 17.4375H7.19717L6.86004 19.375H5.14858L6.45833 12.2708ZM20.0208 12.2708H23.4644C25.1061 12.2708 26.1007 13.3713 25.7119 15.013C25.2598 16.9208 24.0495 17.4375 21.824 17.4375H20.7597L20.4225 19.375H18.7111L20.0208 12.2708ZM7.92438 13.5625L7.43742 16.1458H8.54179C9.49762 16.1458 10.3863 16.0373 10.5348 14.6113C10.5904 14.0598 10.3605 13.5625 9.25608 13.5625H7.92438ZM21.4869 13.5625L20.9999 16.1458H22.1043C23.0601 16.1458 23.9488 16.0373 24.0973 14.6113C24.1529 14.0598 23.9242 13.5625 22.8186 13.5625H21.4869Z" fill="black"/>
</svg>
