<svg width="31" height="31" viewBox="0 0 31 31" fill="none" xmlns="http://www.w3.org/2000/svg">
<g clip-path="url(#clip0_316_4897)">
<mask id="mask0_316_4897" style="mask-type:luminance" maskUnits="userSpaceOnUse" x="0" y="0" width="31" height="31">
<path d="M0 0H31V31H0V0Z" fill="white"/>
</mask>
<g mask="url(#mask0_316_4897)">
<path d="M14.4847 0.00791146C14.4176 0.0143698 14.2058 0.0363281 14.0146 0.0505365C9.61258 0.44837 5.48958 2.82374 2.87525 6.47529C1.43156 8.4796 0.493055 10.8028 0.1395 13.2475C0.0155 14.1 0 14.3506 0 15.5053C0 16.6601 0.0155 16.912 0.1395 17.7632C0.981667 23.5847 5.12533 28.475 10.7428 30.2872C11.749 30.6114 12.8095 30.8322 14.0146 30.9666C14.4847 31.0182 16.5152 31.0182 16.9854 30.9666C19.0663 30.7354 20.8307 30.22 22.5693 29.3326C22.8367 29.197 22.8883 29.1595 22.8522 29.1298C22.0017 28.0083 21.16 26.8802 20.327 25.7457L17.8482 22.3964L14.7431 17.7993C13.7099 16.2617 12.6671 14.7307 11.6147 13.2062C11.603 13.2023 11.5914 15.2444 11.585 17.7399C11.5759 22.1057 11.572 22.2814 11.5178 22.3847C11.4649 22.5053 11.3705 22.603 11.2517 22.6599C11.1548 22.709 11.0709 22.718 10.6123 22.718H10.0879L9.94842 22.6302C9.86209 22.5757 9.79204 22.4989 9.74562 22.408L9.68104 22.2724L9.6875 16.1964L9.69654 10.1178L9.79083 9.99895C9.85432 9.92466 9.9304 9.86213 10.0156 9.81424C10.1396 9.75354 10.1874 9.74837 10.7131 9.74837C11.3305 9.74837 11.4338 9.77162 11.594 9.94729C11.6392 9.99637 13.321 12.5306 15.3334 15.5815L21.4481 24.8454L23.9023 28.5628L24.0276 28.4814C25.2087 27.6962 26.2795 26.7566 27.2115 25.6875C29.1648 23.452 30.4317 20.7006 30.8605 17.7632C30.9845 16.9107 31 16.6601 31 15.5053C31 14.3506 30.9845 14.1 30.8605 13.2475C30.0183 7.42724 25.8747 2.5357 20.2572 0.723495C19.2073 0.389688 18.1262 0.163347 17.0306 0.0479531C16.7387 0.0169531 14.7366 -0.0166302 14.486 0.00920312L14.4847 0.00791146ZM20.8307 9.38541C20.9027 9.42169 20.9669 9.47187 21.0194 9.53305C21.072 9.59424 21.1119 9.66522 21.1368 9.74191C21.1601 9.81941 21.1665 11.505 21.1601 15.3025L21.151 20.7508L20.1913 19.2783L19.2277 17.8058V13.8455C19.2277 11.2842 19.2394 9.84524 19.2575 9.77549C19.279 9.69481 19.3166 9.61933 19.3681 9.55362C19.4196 9.4879 19.4839 9.43332 19.5571 9.39316C19.6824 9.32858 19.7276 9.32341 20.203 9.32341C20.6512 9.32341 20.73 9.33116 20.8307 9.38541Z" fill="black"/>
</g>
</g>
<defs>
<clipPath id="clip0_316_4897">
<rect width="31" height="31" fill="white"/>
</clipPath>
</defs>
</svg>
