<svg width="31" height="31" viewBox="0 0 31 31" fill="none" xmlns="http://www.w3.org/2000/svg">
<g clip-path="url(#clip0_598_8920)">
<path d="M28.2032 1.6088C27.7691 2.65037 27.2133 3.63695 26.5474 4.54799C23.63 1.63227 19.6743 -0.00584667 15.5496 -0.00634766C7.01956 -0.00634766 1.44119e-08 7.01903 1.44119e-08 15.5586C-9.06926e-05 17.6673 0.427994 19.7541 1.25831 21.6925C2.08863 23.6309 3.30388 25.3805 4.83043 26.8353L5.40393 27.3439C8.20675 29.707 11.7542 31.0041 15.4203 31.0062C23.5305 31.0062 30.348 24.6512 30.9254 16.5518C31.3495 12.5869 30.1865 7.57218 28.2032 1.6088ZM7.03966 26.9239C6.91481 27.0778 6.75722 27.2018 6.57836 27.287C6.3995 27.3722 6.20389 27.4165 6.00577 27.4165C5.27484 27.4165 4.67688 26.815 4.67688 26.084C4.67688 25.3533 5.27872 24.7518 6.00577 24.7518C6.3085 24.7518 6.6076 24.8566 6.8418 25.0506C7.41118 25.5108 7.50006 26.3546 7.03966 26.9239ZM28.1388 22.2647C24.3018 27.3802 16.1069 25.6561 10.8524 25.9024C10.8524 25.9024 9.91952 25.9591 8.98249 26.1124C8.98249 26.1124 9.33366 25.9629 9.79019 25.7893C13.4777 24.5054 15.2225 24.255 17.4639 23.1044C21.6845 20.9564 25.8567 16.2568 26.7251 11.3673C25.1178 16.071 20.2466 20.1127 15.8081 21.7559C12.7669 22.8784 7.27386 23.9685 7.27386 23.9685L7.05177 23.8513C3.31191 22.0305 3.19857 13.9272 9.99605 11.3108C12.9728 10.1641 15.8202 10.794 19.0352 10.0268C22.4682 9.21131 26.4384 6.63516 28.0538 3.27602C29.8632 8.65016 32.0404 17.0642 28.1388 22.2647Z" fill="#77BC1F"/>
</g>
<defs>
<clipPath id="clip0_598_8920">
<rect width="31" height="31" fill="white"/>
</clipPath>
</defs>
</svg>
