<svg width="31" height="31" viewBox="0 0 31 31" fill="none" xmlns="http://www.w3.org/2000/svg">
<path d="M27.3117 7.34653L16.632 1.14532C15.9585 0.761699 15.0815 0.761699 14.4026 1.14532L3.60884 7.34653C2.91376 7.74639 2.42188 8.49789 2.42188 9.30171V21.6877C2.42188 22.4915 2.92659 23.2432 3.62167 23.6453L6.47343 25.265C7.83646 25.9364 8.31817 25.9364 8.93841 25.9364C10.9566 25.9364 12.1094 24.716 12.1094 22.5874V10.3593C12.1094 10.1867 12.0195 9.92971 11.85 9.92971H10.4882C10.3157 9.92971 9.92969 10.1867 9.92969 10.3591V22.5872C9.92969 23.5307 9.07622 24.4697 7.48117 23.6722L4.53448 21.9737C4.43179 21.918 4.35938 21.8059 4.35938 21.6877V9.30171C4.35938 9.18498 4.49379 9.06776 4.5972 9.00794L15.3561 2.81739C15.4566 2.76047 15.6044 2.76047 15.7046 2.81739L26.3323 9.00649C26.434 9.06776 26.3982 9.18135 26.3982 9.30171V21.6877C26.3982 21.8059 26.4425 21.9209 26.342 21.9778L15.6649 28.172C15.5734 28.227 15.4598 28.227 15.3595 28.172L12.6211 26.5375C12.5385 26.4895 12.4404 26.4723 12.3612 26.5166C11.5993 26.9485 11.4589 27.0059 10.7442 27.2536C10.5683 27.3149 10.309 27.4212 10.8435 27.7208L14.4274 29.8409C14.7695 30.0385 15.1577 30.1426 15.5528 30.1427C15.9505 30.1427 16.3399 30.0395 16.6831 29.8409L27.3115 23.6453C28.0066 23.2403 28.3359 22.4915 28.3359 21.6877V9.30171C28.3359 8.49789 28.0066 7.74832 27.3117 7.34653ZM18.8688 19.725C16.0289 19.725 15.4034 18.9415 15.1948 17.5293C15.1706 17.3772 15.0415 17.1953 14.8868 17.1953H13.4988C13.3271 17.1953 13.189 17.4036 13.189 17.5746C13.189 19.3828 14.1721 21.5736 18.8691 21.5736C22.2691 21.5736 24.2185 20.2525 24.2185 17.9144C24.2185 15.5962 22.6523 14.9878 19.3549 14.5514C16.0219 14.1108 15.6833 13.8883 15.6833 13.1074C15.6833 12.4637 15.9701 11.6052 18.438 11.6052C20.6431 11.6052 21.4559 12.0784 21.7903 13.5647C21.8189 13.7044 21.9465 13.8047 22.0906 13.8047H23.4842C23.5699 13.8047 23.6518 13.7701 23.7119 13.7088C23.77 13.6429 23.8007 13.5603 23.793 13.4717C23.5772 10.9123 21.8768 9.71949 18.4377 9.71949C15.3787 9.71949 13.5538 11.0113 13.5538 13.1767C13.5538 15.5254 15.3695 16.1745 18.306 16.4649C21.8189 16.8093 22.0921 17.3227 22.0921 18.0137C22.0921 19.2137 21.1287 19.725 18.8688 19.725Z" fill="#83CD29"/>
</svg>
