<svg width="31" height="31" viewBox="0 0 31 31" fill="none" xmlns="http://www.w3.org/2000/svg">
<g clip-path="url(#clip0_316_4894)">
<path d="M26.7445 4.10159C23.8681 -0.0184997 18.1856 -1.23961 14.0781 1.37941L6.86287 5.98097C5.88649 6.59354 5.04873 7.40316 4.40316 8.35803C3.7576 9.31291 3.31845 10.392 3.1138 11.5263C3.02256 12.0354 2.97612 12.5546 2.97527 13.0754C2.97966 14.4875 3.32557 15.8776 3.9835 17.1272C3.36671 18.0651 2.94584 19.1179 2.74616 20.2226C2.54152 21.3773 2.57017 22.5743 2.82972 23.713C3.08942 24.8592 3.5752 25.9421 4.25862 26.8982C7.13533 31.0178 12.8306 32.2392 16.925 29.6204L24.133 25.0186C25.1088 24.4052 25.9454 23.5946 26.5893 22.6387C27.2332 21.6828 27.6701 20.6029 27.8719 19.4681C27.9646 18.9578 28.011 18.4402 28.0104 17.9215C28.0088 16.5121 27.6671 15.1239 27.0146 13.8746C27.6313 12.9376 28.0524 11.8856 28.2526 10.7819C28.342 10.2708 28.3875 9.75377 28.3887 9.23524C28.3891 7.39598 27.8144 5.60261 26.745 4.10619L26.7445 4.10159Z" fill="#FF3E00"/>
<path d="M13.3734 27.2854C12.8994 27.4075 12.4161 27.4692 11.9314 27.4694C11.0058 27.4693 10.0941 27.2448 9.27429 26.8151C8.45451 26.3854 7.75114 25.7634 7.22445 25.0023C6.58119 24.1021 6.23567 23.0232 6.23633 21.9168C6.23674 21.6049 6.26376 21.2938 6.31698 20.9885C6.36032 20.7588 6.41863 20.5335 6.49135 20.3147L6.62722 19.9011L6.99534 20.181C7.84969 20.8085 8.80441 21.2863 9.81877 21.594L10.0861 21.6746L10.061 21.942V22.0808C10.0604 22.4153 10.1643 22.7416 10.3584 23.0142C10.515 23.2462 10.726 23.4364 10.973 23.5683C11.2259 23.7017 11.499 23.7707 11.7752 23.771C11.9209 23.7716 12.0663 23.753 12.2087 23.7155C12.3632 23.6751 12.5126 23.6097 12.6526 23.5213L19.8601 18.897C20.0762 18.7598 20.2541 18.57 20.3771 18.3455C20.5001 18.1209 20.5642 17.8689 20.5634 17.6129C20.5613 17.2783 20.4546 16.9528 20.2583 16.6819C20.0992 16.4529 19.887 16.2658 19.64 16.1365C19.3869 16.006 19.1144 15.9392 18.839 15.9403C18.6933 15.9398 18.5479 15.9585 18.4055 15.996C18.2516 16.0355 18.1031 16.1008 17.9643 16.19L15.2164 17.9459C14.7539 18.2373 14.2614 18.4536 13.7516 18.5891C12.6165 18.8846 11.418 18.8243 10.3183 18.4165C9.21849 18.0086 8.2705 17.2729 7.60251 16.3087C6.96003 15.4081 6.6146 14.3295 6.61438 13.2232C6.61487 12.912 6.64199 12.6015 6.69503 12.2949C6.81832 11.6132 7.08188 10.9645 7.46902 10.39C7.85616 9.81544 8.35842 9.32759 8.94399 8.95735L16.1592 4.35821C16.6119 4.06991 17.1058 3.85212 17.624 3.71229C18.0951 3.59156 18.5796 3.53054 19.066 3.53065C19.9935 3.52859 20.9076 3.75155 21.73 4.18042C22.5524 4.60929 23.2585 5.23126 23.7877 5.99297C24.4263 6.89565 24.7674 7.9751 24.7634 9.08086C24.7629 9.39369 24.7358 9.70564 24.6825 10.0118C24.6394 10.2415 24.5812 10.4667 24.5087 10.6854L24.3725 11.099L24.0044 10.8292C23.1506 10.2008 22.1958 9.72297 21.181 9.41629L20.9136 9.33322L20.9388 9.06561V8.92708C20.9387 8.59183 20.8349 8.26482 20.6414 7.99102C20.4825 7.76221 20.2706 7.57525 20.0238 7.4461C19.7714 7.31553 19.4994 7.24852 19.2246 7.2492C19.0802 7.25231 18.9364 7.27432 18.7959 7.31483C18.6411 7.35372 18.4918 7.41913 18.3525 7.50907L11.137 12.1082C10.9659 12.215 10.8146 12.3625 10.6923 12.5417C10.5782 12.709 10.4984 12.9062 10.4591 13.1174C10.4413 13.2051 10.4303 13.2946 10.4262 13.3848C10.426 13.7185 10.53 14.0439 10.7236 14.3157C10.8823 14.5446 11.0941 14.7316 11.3409 14.8607C11.5934 14.9913 11.8655 15.0582 12.1404 15.0573C12.2861 15.0578 12.4315 15.0392 12.5739 15.0016C12.7287 14.9624 12.8782 14.8971 13.0178 14.8076L15.7708 13.0416C16.233 12.7497 16.7256 12.5334 17.2355 12.3983C17.7095 12.2763 18.1928 12.2146 18.6775 12.2143C19.6032 12.2142 20.5152 12.4383 21.3353 12.8676C22.1555 13.2968 22.8595 13.9184 23.3871 14.679C23.7985 15.2555 24.0905 15.9085 24.2459 16.5995C24.4013 17.2905 24.4171 18.0056 24.2921 18.7027C24.1696 19.3847 23.9063 20.0337 23.5191 20.6083C23.1319 21.183 22.6292 21.6706 22.0432 22.0403L14.8405 26.6395C14.3776 26.9322 13.884 27.1494 13.3734 27.2854Z" fill="white"/>
</g>
<defs>
<clipPath id="clip0_316_4894">
<rect width="31" height="31" fill="white"/>
</clipPath>
</defs>
</svg>
