<svg width="31" height="31" viewBox="0 0 31 31" fill="none" xmlns="http://www.w3.org/2000/svg">
<path d="M27.9484 7.43518L16.2508 0.702368C16.057 0.581274 15.7906 0.532837 15.5 0.532837C15.2094 0.532837 14.943 0.605493 14.7492 0.702368L3.12422 7.4594C2.7125 7.70159 2.42188 8.30706 2.42188 8.76721V22.2571C2.42188 22.5235 2.47031 22.8383 2.66406 23.1047L28.5297 8.08909C28.3844 7.79846 28.1664 7.58049 27.9484 7.43518Z" fill="#659AD3"/>
<path d="M2.59131 23.0804C2.7124 23.2742 2.88193 23.4437 3.05146 23.5406L14.7249 30.2976C14.9187 30.4187 15.1851 30.4672 15.4757 30.4672C15.7663 30.4672 16.0327 30.3945 16.2265 30.2976L27.8515 23.5406C28.2632 23.2984 28.5538 22.6929 28.5538 22.2328V8.74294C28.5538 8.52498 28.5296 8.28279 28.4085 8.06482L2.59131 23.0804Z" fill="#03599C"/>
<path d="M20.6586 18.4305C19.6414 20.2227 17.7039 21.4336 15.5 21.4336C12.2305 21.4336 9.56641 18.7695 9.56641 15.5C9.56641 12.2305 12.2305 9.56641 15.5 9.56641C17.7039 9.56641 19.6414 10.7773 20.6586 12.5938L23.807 10.7773C22.1602 7.89531 19.0602 5.93359 15.5 5.93359C10.2203 5.93359 5.93359 10.2203 5.93359 15.5C5.93359 20.7797 10.2203 25.0664 15.5 25.0664C19.0359 25.0664 22.1359 23.1289 23.7828 20.2711L20.6586 18.4305Z" fill="white"/>
</svg>
