<svg width="31" height="31" viewBox="0 0 31 31" fill="none" xmlns="http://www.w3.org/2000/svg">
<g clip-path="url(#clip0_598_8991)">
<path d="M30.2098 14.1384L16.8614 0.790517C16.0932 0.0218135 14.8464 0.0218135 14.077 0.790517L11.3054 3.56259L14.8215 7.07867C15.6388 6.80282 16.5756 6.98785 17.2269 7.63909C17.8815 8.29445 18.0651 9.23923 17.7824 10.0593L21.1711 13.4482C21.9909 13.1656 22.9372 13.3482 23.5916 14.004C24.507 14.9188 24.507 16.4017 23.5916 17.3169C23.374 17.5346 23.1157 17.7072 22.8314 17.825C22.5471 17.9428 22.2424 18.0035 21.9346 18.0035C21.6269 18.0035 21.3222 17.9428 21.0379 17.825C20.7536 17.7072 20.4952 17.5346 20.2777 17.3169C19.9508 16.9898 19.728 16.5734 19.6373 16.12C19.5466 15.6666 19.592 15.1965 19.7679 14.7689L16.6078 11.6088L16.6073 19.9258C16.8366 20.0387 17.046 20.1882 17.2271 20.3685C18.1421 21.2832 18.1421 22.7656 17.2271 23.6823C16.3119 24.5971 14.8285 24.5971 13.9142 23.6823C12.9992 22.7659 12.9992 21.2835 13.9142 20.3685C14.1334 20.1489 14.3942 19.9752 14.6812 19.8575V11.4635C14.3939 11.3461 14.1331 11.1722 13.9142 10.9522C13.2211 10.2596 13.0542 9.24238 13.4097 8.39085L9.94331 4.92442L0.790564 14.0767C0.421305 14.4461 0.213867 14.947 0.213867 15.4693C0.213867 15.9916 0.421305 16.4925 0.790564 16.8618L14.1392 30.2098C14.9079 30.9785 16.1542 30.9785 16.9241 30.2098L30.21 16.9238C30.5792 16.5544 30.7866 16.0534 30.7865 15.5311C30.7865 15.0088 30.5791 14.5079 30.2098 14.1384Z" fill="#F34F29"/>
</g>
<defs>
<clipPath id="clip0_598_8991">
<rect width="31" height="31" fill="white"/>
</clipPath>
</defs>
</svg>
