<svg width="32" height="32" viewBox="0 0 32 32" fill="none" xmlns="http://www.w3.org/2000/svg">
<g clip-path="url(#clip0_316_4983)">
<path d="M30.7098 14.6384L17.3614 1.29052C16.5932 0.521813 15.3464 0.521813 14.577 1.29052L11.8054 4.06259L15.3215 7.57867C16.1388 7.30282 17.0756 7.48785 17.7269 8.13909C18.3815 8.79445 18.5651 9.73923 18.2824 10.5593L21.6711 13.9482C22.4909 13.6656 23.4372 13.8482 24.0916 14.504C25.007 15.4188 25.007 16.9017 24.0916 17.8169C23.874 18.0346 23.6157 18.2072 23.3314 18.325C23.0471 18.4428 22.7424 18.5035 22.4346 18.5035C22.1269 18.5035 21.8222 18.4428 21.5379 18.325C21.2536 18.2072 20.9952 18.0346 20.7777 17.8169C20.4508 17.4898 20.228 17.0734 20.1373 16.62C20.0466 16.1666 20.092 15.6965 20.2679 15.2689L17.1078 12.1088L17.1073 20.4258C17.3366 20.5387 17.546 20.6882 17.7271 20.8685C18.6421 21.7832 18.6421 23.2656 17.7271 24.1823C16.8119 25.0971 15.3285 25.0971 14.4142 24.1823C13.4992 23.2659 13.4992 21.7835 14.4142 20.8685C14.6334 20.6489 14.8942 20.4752 15.1812 20.3575V11.9635C14.8939 11.8461 14.6331 11.6722 14.4142 11.4522C13.7211 10.7596 13.5542 9.74238 13.9097 8.89085L10.4433 5.42442L1.29056 14.5767C0.921305 14.9461 0.713867 15.447 0.713867 15.9693C0.713867 16.4916 0.921305 16.9925 1.29056 17.3618L14.6392 30.7098C15.4079 31.4785 16.6542 31.4785 17.4241 30.7098L30.71 17.4238C31.0792 17.0544 31.2866 16.5534 31.2865 16.0311C31.2865 15.5088 31.0791 15.0079 30.7098 14.6384Z" fill="#F34F29"/>
</g>
<defs>
<clipPath id="clip0_316_4983">
<rect width="31" height="31" fill="white" transform="translate(0.5 0.5)"/>
</clipPath>
</defs>
</svg>
