<svg width="31" height="31" viewBox="0 0 31 31" fill="none" xmlns="http://www.w3.org/2000/svg">
<g clip-path="url(#clip0_598_9023)">
<path d="M26.7445 4.10172C23.8681 -0.0183777 18.1856 -1.23949 14.0781 1.37953L6.86287 5.98109C5.88649 6.59366 5.04873 7.40328 4.40316 8.35816C3.7576 9.31303 3.31845 10.3921 3.1138 11.5265C3.02256 12.0355 2.97612 12.5547 2.97527 13.0755C2.97966 14.4876 3.32557 15.8778 3.9835 17.1273C3.36671 18.0652 2.94584 19.1181 2.74616 20.2227C2.54152 21.3774 2.57017 22.5744 2.82972 23.7131C3.08942 24.8593 3.5752 25.9422 4.25862 26.8983C7.13533 31.018 12.8306 32.2393 16.925 29.6205L24.133 25.0187C25.1088 24.4054 25.9454 23.5947 26.5893 22.6388C27.2332 21.683 27.6701 20.603 27.8719 19.4683C27.9646 18.958 28.011 18.4403 28.0104 17.9217C28.0088 16.5122 27.6671 15.124 27.0146 13.8747C27.6313 12.9377 28.0524 11.8857 28.2526 10.782C28.342 10.271 28.3875 9.75389 28.3887 9.23536C28.3891 7.3961 27.8144 5.60274 26.745 4.10632L26.7445 4.10172Z" fill="#FF3E00"/>
<path d="M13.3734 27.2853C12.8994 27.4075 12.4161 27.4692 11.9314 27.4694C11.0058 27.4693 10.0941 27.2447 9.27429 26.8151C8.45451 26.3854 7.75114 25.7633 7.22445 25.0022C6.58119 24.102 6.23567 23.0231 6.23633 21.9167C6.23674 21.6048 6.26376 21.2937 6.31698 20.9884C6.36032 20.7587 6.41863 20.5334 6.49135 20.3147L6.62722 19.901L6.99534 20.181C7.84969 20.8084 8.80441 21.2862 9.81877 21.5939L10.0861 21.6746L10.061 21.9419V22.0807C10.0604 22.4152 10.1643 22.7416 10.3584 23.0141C10.515 23.2461 10.726 23.4364 10.973 23.5682C11.2259 23.7016 11.499 23.7706 11.7752 23.7709C11.9209 23.7715 12.0663 23.7529 12.2087 23.7155C12.3632 23.675 12.5126 23.6097 12.6526 23.5212L19.8601 18.8969C20.0762 18.7597 20.2541 18.57 20.3771 18.3454C20.5001 18.1209 20.5642 17.8688 20.5634 17.6128C20.5613 17.2783 20.4546 16.9527 20.2583 16.6819C20.0992 16.4528 19.887 16.2657 19.64 16.1365C19.3869 16.0059 19.1144 15.9391 18.839 15.9403C18.6933 15.9398 18.5479 15.9584 18.4055 15.996C18.2516 16.0355 18.1031 16.1008 17.9643 16.19L15.2164 17.9458C14.7539 18.2372 14.2614 18.4535 13.7516 18.5891C12.6165 18.8845 11.418 18.8243 10.3183 18.4164C9.21849 18.0086 8.2705 17.2728 7.60251 16.3086C6.96003 15.4081 6.6146 14.3294 6.61438 13.2232C6.61487 12.912 6.64199 12.6015 6.69503 12.2949C6.81832 11.6131 7.08188 10.9644 7.46902 10.3899C7.85616 9.81538 8.35842 9.32753 8.94399 8.95729L16.1592 4.35815C16.6119 4.06985 17.1058 3.85206 17.624 3.71223C18.0951 3.5915 18.5796 3.53048 19.066 3.53059C19.9935 3.52853 20.9076 3.75149 21.73 4.18036C22.5524 4.60923 23.2585 5.2312 23.7877 5.99291C24.4263 6.89559 24.7674 7.97504 24.7634 9.0808C24.7629 9.39363 24.7358 9.70558 24.6825 10.0118C24.6394 10.2414 24.5812 10.4666 24.5087 10.6853L24.3725 11.099L24.0044 10.8292C23.1506 10.2008 22.1958 9.72291 21.181 9.41623L20.9136 9.33316L20.9388 9.06555V8.92701C20.9387 8.59177 20.8349 8.26476 20.6414 7.99096C20.4825 7.76215 20.2706 7.57519 20.0238 7.44604C19.7714 7.31547 19.4994 7.24846 19.2246 7.24914C19.0802 7.25225 18.9364 7.27426 18.7959 7.31477C18.6411 7.35365 18.4918 7.41907 18.3525 7.50901L11.137 12.1081C10.9659 12.215 10.8146 12.3625 10.6923 12.5417C10.5782 12.709 10.4984 12.9062 10.4591 13.1173C10.4413 13.2051 10.4303 13.2946 10.4262 13.3847C10.426 13.7184 10.53 14.0439 10.7236 14.3157C10.8823 14.5445 11.0941 14.7315 11.3409 14.8606C11.5934 14.9912 11.8655 15.0581 12.1404 15.0573C12.2861 15.0578 12.4315 15.0391 12.5739 15.0016C12.7287 14.9623 12.8782 14.897 13.0178 14.8076L15.7708 13.0415C16.233 12.7497 16.7256 12.5333 17.2355 12.3983C17.7095 12.2763 18.1928 12.2146 18.6775 12.2142C19.6032 12.2141 20.5152 12.4383 21.3353 12.8675C22.1555 13.2968 22.8595 13.9183 23.3871 14.679C23.7985 15.2555 24.0905 15.9084 24.2459 16.5994C24.4013 17.2904 24.4171 18.0055 24.2921 18.7027C24.1696 19.3847 23.9063 20.0336 23.5191 20.6083C23.1319 21.1829 22.6292 21.6706 22.0432 22.0403L14.8405 26.6394C14.3776 26.9321 13.884 27.1493 13.3734 27.2853Z" fill="white"/>
</g>
<defs>
<clipPath id="clip0_598_9023">
<rect width="31" height="31" fill="white"/>
</clipPath>
</defs>
</svg>
