<svg width="31" height="31" viewBox="0 0 31 31" fill="none" xmlns="http://www.w3.org/2000/svg">
<g clip-path="url(#clip0_598_8928)">
<path d="M28.3234 23.6876C26.6612 23.6423 25.3919 23.7971 24.3067 24.2545C23.9984 24.3846 23.5063 24.3882 23.4559 24.7745C23.6254 24.952 23.6518 25.2175 23.7865 25.4359C24.0456 25.8549 24.483 26.4173 24.8734 26.7118C25.3001 27.0339 25.7397 27.378 26.197 27.6568C27.0102 28.1526 27.9182 28.4359 28.7012 28.9326C29.1628 29.2257 29.6212 29.5945 30.0715 29.9249C30.2943 30.0884 30.4437 30.3424 30.7331 30.4449V30.3979C30.581 30.2041 30.5418 29.9382 30.4023 29.736L29.7879 29.1215C29.1873 28.3243 28.4246 27.6239 27.614 27.0424C26.9676 26.5783 25.521 25.9516 25.2515 25.1996L25.2042 25.1523C25.6625 25.1005 26.1989 24.9349 26.622 24.8213C27.3326 24.6309 27.9676 24.6801 28.7012 24.4907L29.6934 24.2071V24.0182C29.3226 23.6377 29.0582 23.1339 28.654 22.7896C27.5956 21.8886 26.4408 20.9884 25.2517 20.2376C24.592 19.8215 23.777 19.551 23.0778 19.1982C22.8427 19.0792 22.4295 19.0175 22.2742 18.8199C21.9069 18.352 21.707 17.7586 21.4239 17.2134C20.8308 16.071 20.2484 14.8235 19.7228 13.6215C19.3644 12.802 19.1302 11.994 18.6831 11.2588C16.5373 7.73082 14.2278 5.60175 10.65 3.50877C9.88854 3.06362 8.97186 2.88804 8.00311 2.65796C7.48362 2.62672 6.96364 2.59499 6.4439 2.56327C6.1264 2.43103 5.79654 2.0428 5.49889 1.85438C4.31362 1.10554 1.2732 -0.523172 0.395514 1.61825C-0.158853 2.9699 1.22404 4.28837 1.71834 4.97352C2.06564 5.45353 2.51005 5.9924 2.75805 6.53272C2.92129 6.88801 2.94938 7.24427 3.08912 7.6199C3.4323 8.54554 3.73141 9.55256 4.17582 10.4077C4.40033 10.8407 4.64784 11.2965 4.93193 11.6836C5.10582 11.9211 5.40444 12.0258 5.45142 12.3924C5.15983 12.8008 5.14312 13.4348 4.97915 13.9521C4.24048 16.2808 4.51924 19.1754 5.59358 20.8988C5.92296 21.4282 6.69965 22.5629 7.76722 22.1274C8.70109 21.7472 8.49257 20.5682 8.7597 19.5283C8.82001 19.2926 8.78295 19.1192 8.90138 18.9613V19.0085L9.75219 20.7097C10.3819 21.7237 11.4988 22.7833 12.4458 23.4982C12.9367 23.869 13.3232 24.5098 13.958 24.7268V24.6793H13.9108C13.7878 24.4878 13.5952 24.4083 13.4383 24.2543C13.0685 23.8918 12.6572 23.441 12.3516 23.0257C11.4904 21.8566 10.7294 20.5772 10.036 19.2454C9.70472 18.6092 9.41676 17.9078 9.13776 17.2604C9.03022 17.011 9.03168 16.6334 8.80741 16.5043C8.50153 16.9785 8.0513 17.3621 7.81493 17.9221C7.43687 18.8172 7.38819 19.909 7.24797 21.041C7.16514 21.0705 7.20195 21.0502 7.15327 21.0879C6.49501 20.9293 6.26396 20.2519 6.01911 19.6704C5.40056 18.2003 5.28552 15.8337 5.82996 14.1415C5.97091 13.7034 6.60738 12.3249 6.34969 11.9202C6.22666 11.5167 5.82076 11.2832 5.59383 10.9749C5.31265 10.5937 5.03219 10.0919 4.83723 9.65161C4.33106 8.50582 4.09469 7.21908 3.56163 6.06045C3.30661 5.50657 2.87576 4.94591 2.52192 4.45378C2.1303 3.90813 1.69146 3.50634 1.38776 2.84687C1.27974 2.61243 1.13322 2.23704 1.29306 1.99606C1.34392 1.83355 1.41609 1.76574 1.57666 1.7127C1.85082 1.50127 2.61419 1.78294 2.89949 1.90137C3.6573 2.21621 4.28989 2.51604 4.93193 2.94132C5.23975 3.14573 5.55169 3.54073 5.92417 3.6502H6.34945C7.01474 3.80302 7.75995 3.69743 8.38165 3.88634C9.48021 4.22007 10.4647 4.73956 11.3586 5.3041C14.0823 7.02412 16.3094 9.47215 17.8328 12.3927C18.0779 12.863 18.1839 13.3115 18.3997 13.8105C18.8352 14.8163 19.3837 15.8511 19.817 16.8349C20.2496 17.8162 20.671 18.8065 21.2822 19.6232C21.6036 20.0524 22.8446 20.2827 23.4089 20.5212C23.8041 20.6881 24.452 20.8625 24.8267 21.0879C25.5418 21.5195 26.235 22.0332 26.9061 22.506C27.241 22.7421 28.272 23.2606 28.3234 23.6876ZM7.20001 5.68313C6.85344 5.67659 6.60835 5.72091 6.34921 5.77734V5.82456H6.39644C6.56185 6.16411 6.85369 6.38305 7.05785 6.67537C7.21527 7.00644 7.37294 7.33702 7.5306 7.66761L7.57758 7.62087C7.87039 7.41428 8.00432 7.08466 8.00262 6.58091C7.8854 6.45764 7.86821 6.30312 7.76649 6.15587C7.63183 5.95946 7.37051 5.84781 7.20001 5.68313Z" fill="#00618A"/>
</g>
<defs>
<clipPath id="clip0_598_8928">
<rect width="31" height="31" fill="white"/>
</clipPath>
</defs>
</svg>
