<svg width="31" height="31" viewBox="0 0 31 31" fill="none" xmlns="http://www.w3.org/2000/svg">
<path fill-rule="evenodd" clip-rule="evenodd" d="M21.3218 10.3685C21.7105 11.493 21.9905 12.641 22.0825 13.8308C22.1968 15.307 22.1445 16.7727 21.8333 18.2246C21.8248 18.2646 21.8069 18.3021 21.7936 18.3409C21.696 18.3411 21.5964 18.329 21.501 18.3438C20.6947 18.4704 19.8892 18.6017 19.0837 18.7322C18.2511 18.8671 17.4172 18.9967 16.586 19.1408C16.2915 19.1917 15.927 19.1309 15.8081 19.5382C15.8047 19.5494 15.7708 19.5513 15.7512 19.5576L15.7914 17.1234L15.7505 11.2499L16.1385 11.1832C16.773 11.0794 17.4075 10.974 18.0426 10.873C18.8004 10.7526 19.5589 10.6357 20.3172 10.5182C20.6516 10.4661 20.9866 10.4184 21.3218 10.3685Z" fill="#439934"/>
<path fill-rule="evenodd" clip-rule="evenodd" d="M14.9502 26.6537C14.5409 26.3018 14.1173 25.9654 13.7249 25.5953C11.6138 23.6041 10.0696 21.2604 9.30913 18.4348C9.09964 17.6572 8.9599 16.8669 8.9151 16.0633C8.88361 15.501 8.83808 14.9335 8.8778 14.3741C8.98363 12.8861 9.1987 11.4124 9.63512 9.9791L9.6591 9.94568C9.70148 10.0021 9.76251 10.052 9.78406 10.1157C10.2101 11.3702 10.6329 12.6257 11.0536 13.882C12.3755 17.8296 13.6956 21.7782 15.0197 25.7249C15.0456 25.8019 15.1127 25.8651 15.1609 25.9347L14.9502 26.6537Z" fill="#45A538"/>
<path fill-rule="evenodd" clip-rule="evenodd" d="M21.3215 10.3685C20.9863 10.4184 20.6511 10.4661 20.3166 10.5177C19.5583 10.6352 18.7998 10.7522 18.042 10.8725C17.407 10.9735 16.7725 11.0789 16.1379 11.1828L15.7499 11.2494L15.747 10.9963C15.7342 10.7883 15.7122 10.5805 15.7097 10.3724C15.693 9.04572 15.6826 7.71901 15.6661 6.39231C15.656 5.56185 15.6407 4.73163 15.6238 3.90141C15.6134 3.38555 15.6022 2.86945 15.579 2.35432C15.5664 2.0775 15.5218 1.80213 15.5036 1.52531C15.4935 1.36619 15.5075 1.20586 15.5107 1.04602C15.7085 1.4294 15.902 1.81569 16.1055 2.19617C16.4269 2.79776 16.9388 3.24097 17.3997 3.72461C19.2217 5.63596 20.5152 7.85827 21.3215 10.3685Z" fill="#46A037"/>
<path fill-rule="evenodd" clip-rule="evenodd" d="M15.7508 19.5575C15.7704 19.5512 15.8046 19.5492 15.8077 19.5381C15.9266 19.1307 16.2911 19.1915 16.5856 19.1407C17.4168 18.9968 18.2506 18.867 19.0833 18.7321C19.8888 18.6016 20.6943 18.4703 21.5006 18.3436C21.596 18.3286 21.6955 18.341 21.7931 18.3407C21.6425 18.8784 21.5238 19.4277 21.3327 19.9506C21.1157 20.5437 20.8532 21.1225 20.5744 21.6899C20.1571 22.5363 19.6406 23.33 19.0358 24.0544C18.5711 24.6134 18.053 25.13 17.5338 25.6403C17.2468 25.9224 16.9084 26.1522 16.5936 26.4058L16.512 26.3501L16.218 26.0987L15.9138 25.432C15.706 24.6542 15.5927 23.8542 15.5762 23.0493L15.5817 22.9135L15.6232 22.3259C15.637 22.1254 15.6554 21.9251 15.6638 21.7241C15.6951 21.0019 15.7222 20.2797 15.7508 19.5575Z" fill="#409433"/>
<path fill-rule="evenodd" clip-rule="evenodd" d="M15.7512 19.5574C15.7226 20.2796 15.6955 21.0018 15.6647 21.7243C15.6563 21.9253 15.6379 22.1256 15.6241 22.3261L15.4388 22.3961C15.0273 21.1847 14.6156 19.9861 14.2128 18.7844C13.5468 16.7963 12.8888 14.805 12.2237 12.8164C11.6866 11.2113 11.1457 9.60744 10.6011 8.00485C10.5757 7.92977 10.5025 7.87117 10.4517 7.80481L11.6374 5.62463C11.6781 5.69535 11.7319 5.76147 11.7575 5.83752C12.3067 7.46068 12.8531 9.0848 13.3967 10.7098C14.1029 12.8241 14.8047 14.9401 15.5105 17.0547C15.5386 17.1392 15.5851 17.2172 15.6294 17.3119L15.7917 17.123L15.7512 19.5574Z" fill="#4FAA41"/>
<path fill-rule="evenodd" clip-rule="evenodd" d="M10.4516 7.80493C10.5025 7.87129 10.5754 7.9299 10.601 8.00498C11.1457 9.60756 11.6866 11.2114 12.2237 12.8165C12.8888 14.8051 13.5468 16.7964 14.2128 18.7845C14.6153 19.986 15.027 21.1848 15.4387 22.3962L15.624 22.3263L15.5826 22.9138L15.5451 23.0492C15.4806 23.6924 15.4264 24.3371 15.3479 24.9789C15.3084 25.3006 15.2246 25.6164 15.161 25.9348C15.113 25.8653 15.0457 25.8021 15.0198 25.7251C13.6957 21.7782 12.3756 17.8298 11.0537 13.8821C10.6332 12.6258 10.21 11.3704 9.78415 10.1159C9.76259 10.0522 9.7018 10.0023 9.65918 9.94587L10.4516 7.80493Z" fill="#4AA73C"/>
<path fill-rule="evenodd" clip-rule="evenodd" d="M15.791 17.1232L15.6287 17.3121C15.5844 17.2174 15.5379 17.1391 15.5098 17.0549C14.8043 14.9403 14.1022 12.8243 13.396 10.71C12.8524 9.08499 12.306 7.46088 11.7568 5.83771C11.7314 5.76166 11.6776 5.6953 11.6367 5.62482L13.1032 3.6958C13.1494 3.75756 13.2153 3.81253 13.2393 3.88204C13.6464 5.07385 14.0499 6.26711 14.4509 7.46109C14.8256 8.57612 15.1947 9.69285 15.5737 10.8064C15.5991 10.881 15.6875 10.9338 15.7466 10.9968L15.7495 11.2499C15.7636 13.2072 15.7774 15.1653 15.791 17.1232Z" fill="#57AE47"/>
<path fill-rule="evenodd" clip-rule="evenodd" d="M15.7475 10.9963C15.6884 10.9333 15.6 10.8805 15.5746 10.8059C15.1955 9.69237 14.8264 8.57564 14.4518 7.46061C14.0507 6.26662 13.6472 5.07361 13.2401 3.88156C13.2161 3.81205 13.1503 3.75708 13.104 3.69532C13.5809 3.22838 14.043 2.74473 14.539 2.29935C14.98 1.90362 15.3346 1.4793 15.3508 0.853977C15.3515 0.828062 15.3651 0.802148 15.3859 0.729492L15.5116 1.04579C15.5084 1.20587 15.4942 1.36596 15.5046 1.52508C15.5227 1.8019 15.5673 2.07727 15.5799 2.35409C15.6031 2.86922 15.6143 3.38532 15.6247 3.90118C15.6414 4.7314 15.6567 5.56162 15.6671 6.39208C15.6833 7.71878 15.694 9.04548 15.7107 10.3722C15.7126 10.5807 15.7344 10.7883 15.7475 10.9963Z" fill="#60B24F"/>
<path fill-rule="evenodd" clip-rule="evenodd" d="M15.1604 25.9347C15.2241 25.6162 15.3079 25.3002 15.3474 24.9788C15.4261 24.3372 15.4801 23.6923 15.5445 23.0491L15.5605 23.0466L15.5765 23.0493C15.593 23.8542 15.7063 24.6542 15.9141 25.4319C15.8715 25.4881 15.8112 25.5383 15.7886 25.6017C15.6126 26.0982 15.4467 26.5986 15.2696 27.095C15.2454 27.1628 15.1781 27.2156 15.1306 27.2752L14.9497 26.6538L15.1604 25.9347Z" fill="#A9AA88"/>
<path fill-rule="evenodd" clip-rule="evenodd" d="M15.1309 27.2753C15.1783 27.2157 15.2459 27.1629 15.2699 27.0951C15.4469 26.5986 15.6131 26.0985 15.7889 25.6018C15.8114 25.5383 15.8715 25.4882 15.9143 25.432L16.2183 26.099C16.1582 26.1842 16.0754 26.261 16.042 26.356L15.4597 28.0656C15.4358 28.1341 15.3539 28.1825 15.2992 28.2404L15.1309 27.2753Z" fill="#B6B598"/>
<path fill-rule="evenodd" clip-rule="evenodd" d="M15.2993 28.2403C15.3543 28.1827 15.4359 28.134 15.4599 28.0654L16.0421 26.3558C16.0753 26.2611 16.1584 26.1841 16.2184 26.0989L16.5127 26.35C16.3705 26.4905 16.2916 26.6528 16.339 26.8579L16.2497 27.1505C16.209 27.2006 16.1501 27.2442 16.13 27.3016C15.9268 27.8836 15.7328 28.4687 15.5282 29.0507C15.5023 29.1245 15.4303 29.1824 15.3795 29.2473C15.3531 28.9114 15.3262 28.5762 15.2993 28.2403Z" fill="#C2C1A7"/>
<path fill-rule="evenodd" clip-rule="evenodd" d="M15.3795 29.2472C15.4301 29.1821 15.502 29.1242 15.5282 29.0506C15.7328 28.4689 15.9268 27.8837 16.13 27.3015C16.1501 27.2444 16.2087 27.2005 16.2497 27.1504L16.1264 28.4933C16.0935 28.5313 16.0457 28.5645 16.03 28.6088C15.8907 28.9997 15.7595 29.3935 15.6197 29.7844C15.5909 29.8651 15.5357 29.9363 15.4926 30.0116C15.4543 29.9615 15.3858 29.913 15.3826 29.8607C15.3703 29.657 15.3788 29.4519 15.3795 29.2472Z" fill="#CECDB7"/>
<path fill-rule="evenodd" clip-rule="evenodd" d="M15.4922 30.0116C15.5353 29.936 15.5905 29.8648 15.6193 29.7844C15.7593 29.3937 15.8903 28.9999 16.0296 28.6088C16.0453 28.5645 16.0933 28.5316 16.126 28.4933L16.1289 29.3748L15.8339 30.1314L15.4922 30.0116Z" fill="#DBDAC7"/>
<path fill-rule="evenodd" clip-rule="evenodd" d="M15.834 30.1317L16.129 29.3751L16.1898 30.2702L15.834 30.1317Z" fill="#EBE9DC"/>
<path fill-rule="evenodd" clip-rule="evenodd" d="M16.339 26.8581C16.2916 26.653 16.3703 26.4904 16.5127 26.3502L16.5943 26.4059L16.339 26.8581Z" fill="#CECDB7"/>
<path fill-rule="evenodd" clip-rule="evenodd" d="M15.5764 23.0494L15.5604 23.0468L15.5444 23.0492L15.582 22.9138L15.5764 23.0494Z" fill="#4FAA41"/>
</svg>
