<svg width="31" height="31" viewBox="0 0 31 31" fill="none" xmlns="http://www.w3.org/2000/svg">
<g clip-path="url(#clip0_598_9018)">
<path d="M5.49048 11.3828H29.6293V29.2248H5.49048V11.3828Z" fill="white"/>
<path d="M0.363281 15.4782V30.6149H30.6367V0.341492H0.363281V15.4782ZM24.7588 14.2673C25.4839 14.4355 26.1429 14.8148 26.6527 15.3571C26.9334 15.6493 27.1774 15.9746 27.3793 16.3259C27.3793 16.3646 26.0715 17.2486 25.2747 17.7427C25.2456 17.762 25.1294 17.6361 25.001 17.4448C24.8556 17.1938 24.6489 16.9837 24.4003 16.8342C24.1517 16.6847 23.8693 16.6007 23.5794 16.5898C22.6615 16.5269 22.0705 17.0088 22.0754 17.8008C22.0678 17.998 22.1129 18.1936 22.2062 18.3675C22.4072 18.7865 22.7826 19.0359 23.9596 19.5445C26.1272 20.477 27.0548 21.0921 27.6312 21.9664C28.2754 22.9352 28.4183 24.4997 27.9823 25.6574C27.498 26.9167 26.3113 27.7716 24.6329 28.055C23.8663 28.1428 23.0918 28.1347 22.3273 28.0308C21.1555 27.8376 20.0761 27.275 19.2466 26.4251C18.9681 26.1175 18.4256 25.3159 18.4595 25.2577C18.5479 25.1921 18.641 25.133 18.738 25.0809L19.8594 24.4609L20.7288 23.9572L20.9105 24.226C21.217 24.6645 21.6071 25.0382 22.0584 25.3256C23.0272 25.8341 24.3495 25.7639 25.0034 25.1754C25.223 24.9597 25.36 24.6739 25.3905 24.3677C25.421 24.0615 25.3432 23.7542 25.1705 23.4995C24.9284 23.1628 24.444 22.8795 23.0902 22.2885C21.528 21.6152 20.8548 21.1987 20.2396 20.5351C19.8556 20.0972 19.572 19.5805 19.4089 19.0214C19.2872 18.3826 19.2692 17.7284 19.3556 17.0839C19.6777 15.5751 20.8088 14.5216 22.4605 14.2091C23.2254 14.1145 24.0002 14.1357 24.7588 14.2721V14.2673ZM17.653 15.5363V16.7763H13.7223V27.9727H10.9348V16.7739H6.99437V15.563C6.9821 15.1454 6.9918 14.7274 7.02344 14.3109C7.04281 14.2891 9.44531 14.2891 12.3516 14.2891H17.6385L17.653 15.5363Z" fill="#007ACC"/>
</g>
<defs>
<clipPath id="clip0_598_9018">
<rect width="31" height="31" fill="white"/>
</clipPath>
</defs>
</svg>
