<svg width="31" height="31" viewBox="0 0 31 31" fill="none" xmlns="http://www.w3.org/2000/svg">
<path d="M27.3117 7.34647L16.632 1.14526C15.9585 0.761638 15.0815 0.761638 14.4026 1.14526L3.60884 7.34647C2.91376 7.74633 2.42188 8.49783 2.42188 9.30165V21.6876C2.42188 22.4914 2.92659 23.2432 3.62167 23.6452L6.47343 25.265C7.83646 25.9363 8.31817 25.9363 8.93841 25.9363C10.9566 25.9363 12.1094 24.7159 12.1094 22.5873V10.3593C12.1094 10.1866 12.0195 9.92965 11.85 9.92965H10.4882C10.3157 9.92965 9.92969 10.1866 9.92969 10.359V22.5871C9.92969 23.5307 9.07622 24.4696 7.48117 23.6721L4.53448 21.9736C4.43179 21.9179 4.35938 21.8058 4.35938 21.6876V9.30165C4.35938 9.18492 4.49379 9.0677 4.5972 9.00788L15.3561 2.81733C15.4566 2.76041 15.6044 2.76041 15.7046 2.81733L26.3323 9.00643C26.434 9.0677 26.3982 9.18129 26.3982 9.30165V21.6876C26.3982 21.8058 26.4425 21.9208 26.342 21.9777L15.6649 28.1719C15.5734 28.2269 15.4598 28.2269 15.3595 28.1719L12.6211 26.5374C12.5385 26.4895 12.4404 26.4723 12.3612 26.5166C11.5993 26.9484 11.4589 27.0058 10.7442 27.2536C10.5683 27.3148 10.309 27.4212 10.8435 27.7207L14.4274 29.8408C14.7695 30.0385 15.1577 30.1426 15.5528 30.1426C15.9505 30.1426 16.3399 30.0394 16.6831 29.8408L27.3115 23.6452C28.0066 23.2403 28.3359 22.4914 28.3359 21.6876V9.30165C28.3359 8.49783 28.0066 7.74826 27.3117 7.34647ZM18.8688 19.7249C16.0289 19.7249 15.4034 18.9414 15.1948 17.5292C15.1706 17.3772 15.0415 17.1953 14.8868 17.1953H13.4988C13.3271 17.1953 13.189 17.4036 13.189 17.5745C13.189 19.3827 14.1721 21.5735 18.8691 21.5735C22.2691 21.5735 24.2185 20.2524 24.2185 17.9143C24.2185 15.5961 22.6523 14.9877 19.3549 14.5513C16.0219 14.1108 15.6833 13.8882 15.6833 13.1074C15.6833 12.4637 15.9701 11.6051 18.438 11.6051C20.6431 11.6051 21.4559 12.0783 21.7903 13.5646C21.8189 13.7044 21.9465 13.8046 22.0906 13.8046H23.4842C23.5699 13.8046 23.6518 13.77 23.7119 13.7087C23.77 13.6429 23.8007 13.5603 23.793 13.4716C23.5772 10.9122 21.8768 9.71943 18.4377 9.71943C15.3787 9.71943 13.5538 11.0113 13.5538 13.1767C13.5538 15.5254 15.3695 16.1744 18.306 16.4648C21.8189 16.8092 22.0921 17.3227 22.0921 18.0136C22.0921 19.2137 21.1287 19.7249 18.8688 19.7249Z" fill="#83CD29"/>
</svg>
