<svg width="21" height="19" viewBox="0 0 21 19" fill="none" xmlns="http://www.w3.org/2000/svg">
<g clip-path="url(#clip0_342_1189)">
<path d="M17.2662 6.05586C17.0427 5.97918 16.8173 5.90815 16.5902 5.84283C16.6284 5.68697 16.6635 5.53299 16.6947 5.38173C17.2064 2.89774 16.8719 0.896587 15.7292 0.237712C14.6337 -0.393928 12.8421 0.264701 11.0326 1.83945C10.8543 1.99493 10.6799 2.15489 10.5097 2.31917C10.3957 2.20993 10.2797 2.10281 10.1618 1.99786C8.26539 0.314083 6.36456 -0.395569 5.22318 0.265193C4.12863 0.898802 3.80453 2.78002 4.26521 5.13416C4.31105 5.36731 4.3628 5.59926 4.42042 5.82978C4.15136 5.90624 3.89173 5.98761 3.64325 6.07424C1.41988 6.84943 0 8.06423 0 9.32431C0 10.6257 1.5243 11.9311 3.84005 12.7226C4.02779 12.7865 4.21709 12.8457 4.40779 12.9002C4.34585 13.1485 4.29087 13.3985 4.2429 13.6498C3.80371 15.9631 4.14668 17.7999 5.23827 18.4295C6.36571 19.0796 8.258 18.4114 10.1005 16.8007C10.2499 16.6698 10.396 16.5351 10.5387 16.3969C10.7231 16.5748 10.9124 16.7475 11.1064 16.9148C12.8912 18.4506 14.6539 19.0708 15.7444 18.4395C16.8708 17.7874 17.2369 15.8142 16.7616 13.4136C16.7242 13.2255 16.6822 13.0384 16.6357 12.8523C16.7686 12.8129 16.899 12.7724 17.0262 12.7303C19.4336 11.9327 21 10.6431 21 9.32431C21 8.05964 19.5343 6.83663 17.2662 6.05586ZM16.7441 11.8788C16.6292 11.9167 16.5114 11.9534 16.3913 11.9891C16.1255 11.1477 15.7669 10.2531 15.3279 9.32866C15.7468 8.42632 16.0917 7.54309 16.35 6.70719C16.5648 6.76937 16.7733 6.83491 16.9742 6.90406C18.9176 7.57311 20.1029 8.56216 20.1029 9.32431C20.1029 10.1361 18.8227 11.19 16.7441 11.8788ZM15.8816 13.5878C16.0917 14.6493 16.1217 15.6091 15.9825 16.3594C15.8575 17.0336 15.606 17.4831 15.2949 17.6631C14.6331 18.0462 13.2179 17.5483 11.6915 16.2348C11.5111 16.0792 11.335 15.9186 11.1635 15.7533C11.7552 15.1061 12.3466 14.3538 12.9238 13.5182C13.939 13.4282 14.8981 13.2808 15.7679 13.0798C15.8098 13.2482 15.8477 13.4176 15.8816 13.5878ZM7.15936 17.5969C6.51279 17.8252 5.9978 17.8318 5.68649 17.6523C5.02409 17.2703 4.74871 15.7954 5.12433 13.8172C5.16898 13.5834 5.2201 13.3509 5.27764 13.12C6.13782 13.3103 7.08996 13.4471 8.10756 13.5296C8.68867 14.3473 9.29709 15.0987 9.91028 15.7568C9.77997 15.8829 9.64657 16.0058 9.51021 16.1253C8.69539 16.8375 7.87894 17.3428 7.15936 17.5969ZM4.13027 11.8738C3.10628 11.5237 2.26062 11.0689 1.68098 10.5725C1.16009 10.1265 0.897176 9.68361 0.897176 9.32431C0.897176 8.55962 2.03716 7.58427 3.93857 6.92137C4.16932 6.84098 4.41082 6.7651 4.66143 6.6939C4.92425 7.54867 5.26895 8.4424 5.68493 9.34613C5.26354 10.2632 4.91392 11.1712 4.64855 12.0361C4.47449 11.9862 4.30168 11.9321 4.13027 11.8738ZM5.14566 4.96181C4.751 2.94491 5.01309 1.42347 5.67271 1.04162C6.37522 0.634908 7.92873 1.21479 9.56616 2.66871C9.67293 2.76373 9.77798 2.86068 9.88124 2.95951C9.27109 3.61469 8.66824 4.3606 8.0923 5.17337C7.10464 5.26492 6.15923 5.41192 5.29003 5.60887C5.23648 5.39446 5.18834 5.17865 5.14566 4.96181ZM14.2041 7.19864C13.9988 6.84401 13.7859 6.49385 13.5655 6.14839C14.2355 6.23313 14.8775 6.34559 15.4804 6.48308C15.2994 7.0632 15.0738 7.66966 14.8083 8.29146C14.6142 7.9232 14.4128 7.55885 14.2041 7.19864ZM10.5101 3.60067C10.9239 4.04897 11.3383 4.54944 11.7459 5.09249C10.919 5.05343 10.0908 5.05327 9.26387 5.09199C9.67189 4.55395 10.0898 4.05413 10.5101 3.60067ZM6.79235 7.20479C6.58632 7.56211 6.38865 7.92418 6.19951 8.29072C5.93832 7.67114 5.71479 7.06189 5.53227 6.47356C6.13143 6.33952 6.77037 6.22993 7.43613 6.14675C7.21329 6.49432 6.99864 6.84715 6.79235 7.20479ZM7.45525 12.5657C6.76741 12.4889 6.11888 12.385 5.51988 12.2546C5.70527 11.6557 5.93373 11.0335 6.20058 10.4006C6.39047 10.7675 6.58896 11.1298 6.79588 11.4872C7.00867 11.8547 7.229 12.2147 7.45525 12.5657ZM10.5349 15.1111C10.1096 14.6524 9.68551 14.1449 9.27134 13.599C9.67345 13.6148 10.0834 13.6228 10.5 13.6228C10.928 13.6228 11.3512 13.6132 11.7676 13.5947C11.3587 14.1504 10.9458 14.6586 10.5349 15.1111ZM14.8167 10.3683C15.0974 11.0082 15.334 11.6271 15.5219 12.2157C14.913 12.3546 14.2556 12.4665 13.563 12.5496C13.7849 12.1977 13.9999 11.8415 14.2076 11.4811C14.4189 11.1147 14.622 10.7437 14.8167 10.3683ZM13.4306 11.0329C13.1125 11.5855 12.7765 12.1276 12.4231 12.6583C11.7831 12.7036 11.1416 12.7262 10.5 12.7258C9.84646 12.7258 9.2108 12.7055 8.59868 12.6658C8.23612 12.1362 7.89372 11.5932 7.57222 11.0378C7.25223 10.4853 6.95343 9.92088 6.67628 9.34572C6.95272 8.77043 7.2507 8.20574 7.5696 7.65284L7.56952 7.65293C7.88829 7.09989 8.22795 6.55916 8.58777 6.03191C9.21227 5.98466 9.85269 5.96005 10.4999 5.96005C11.1501 5.96005 11.7914 5.9849 12.4158 6.03248C12.7719 6.55895 13.1094 7.09782 13.4276 7.64809C13.7476 8.19976 14.0495 8.7617 14.3329 9.33301C14.0524 9.91016 13.7514 10.4771 13.4306 11.0329ZM15.2812 1.01488C15.9844 1.42044 16.2579 3.0559 15.816 5.2006C15.7878 5.33743 15.7562 5.4768 15.7217 5.61814C14.8504 5.417 13.9043 5.26746 12.9138 5.17452C12.3368 4.35281 11.7388 3.60575 11.1386 2.95902C11.2959 2.80738 11.457 2.65968 11.6216 2.51605C13.172 1.16688 14.621 0.634169 15.2812 1.01488ZM10.5 7.44908C11.5356 7.44908 12.3752 8.28867 12.3752 9.32431C12.3752 10.36 11.5356 11.1995 10.5 11.1995C9.46436 11.1995 8.62477 10.36 8.62477 9.32431C8.62477 8.28867 9.46436 7.44908 10.5 7.44908Z" fill="#00D8FF"/>
</g>
<defs>
<clipPath id="clip0_342_1189">
<rect width="21" height="18.7031" fill="white"/>
</clipPath>
</defs>
</svg>
