<svg width="31" height="35" viewBox="0 0 31 35" fill="none" xmlns="http://www.w3.org/2000/svg">
<g clip-path="url(#clip0_316_5000)">
<path d="M29.0079 16.8272C29.0079 15.0703 27.5836 13.646 25.8268 13.646C25.7137 13.646 25.6023 13.6521 25.4923 13.6637L29.8616 0.776917H11.2936L15.6568 13.6525C15.5925 13.6484 15.528 13.6463 15.4634 13.6462C13.7066 13.6462 12.2823 15.0702 12.2823 16.8273C12.2823 18.2474 13.213 19.4497 14.4975 19.8587C13.8191 21.0338 12.9654 22.0923 11.9962 23.0068C10.6782 24.2501 9.16984 25.1929 7.53847 25.7738C5.59613 24.776 4.67896 22.557 5.50652 20.6113C5.6 20.3916 5.69542 20.1689 5.78661 19.9471C7.19372 19.6187 8.24239 18.3573 8.24239 16.8501C8.24239 15.0931 6.81808 13.6689 5.06113 13.6689C3.30418 13.6689 1.88 15.0931 1.88 16.8501C1.88 17.9274 2.41596 18.8791 3.2354 19.4545C2.44805 21.2472 1.29064 23.1234 0.93002 25.2979C0.497836 27.9039 0.928567 30.6701 3.18248 32.2324C8.43166 35.8705 14.1296 29.977 20.1373 28.4954C22.3146 27.9586 24.7046 28.045 26.6228 26.9341C28.0634 26.0998 29.0131 24.717 29.2825 23.1647C29.549 21.6312 29.1607 20.1043 28.268 18.8663C28.7469 18.2948 29.0089 17.5728 29.0079 16.8272Z" fill="#99425B"/>
<path d="M28.5175 23.0318C28.2835 24.3796 27.4511 25.5567 26.2339 26.2618C25.0991 26.919 23.7394 27.1152 22.2996 27.3227C21.5283 27.4339 20.7308 27.5491 19.9517 27.7411C17.8916 28.2491 15.8962 29.2403 13.9667 30.1987C10.1051 32.1168 6.77014 33.7732 3.62558 31.5937C1.32213 29.9973 1.42845 27.0436 1.6968 25.4251C1.94552 23.9255 2.61796 22.5444 3.26811 21.2088C3.37887 20.9819 3.48875 20.7544 3.59773 20.5266C3.92546 20.6576 4.26935 20.7439 4.62012 20.7831C3.95822 22.9675 4.99915 25.3426 7.1838 26.4649L7.4829 26.6186L7.79944 26.5058C9.5266 25.8907 11.1181 24.9038 12.5297 23.5719C13.4422 22.711 14.2267 21.7586 14.8716 20.7409C15.0676 20.7705 15.2656 20.7854 15.4638 20.7854C17.469 20.7854 19.1295 19.2864 19.3864 17.3503C20.2072 17.3203 21.0789 17.32 21.9044 17.3501C22.1612 19.2864 23.8218 20.7855 25.827 20.7855C26.6655 20.7855 27.4431 20.5227 28.0839 20.0764C28.5286 20.9869 28.6946 22.0113 28.5175 23.0318ZM5.06163 14.4459C6.38736 14.4459 7.46582 15.5245 7.46582 16.8502C7.46619 17.3091 7.33439 17.7584 7.0862 18.1443C6.68659 18.7676 6.00725 19.1948 5.2268 19.2481C5.17219 19.2517 5.11709 19.2544 5.06163 19.2544C4.76616 19.2544 4.48316 19.2005 4.22148 19.1027C3.69446 18.9045 3.25313 18.5286 2.97361 18.0398C2.76605 17.6777 2.657 17.2676 2.65731 16.8502C2.65731 15.5245 3.73589 14.4459 5.06163 14.4459ZM13.0598 16.8273C13.0598 15.6228 13.9502 14.6227 15.1071 14.4498C15.2236 14.4322 15.3427 14.4231 15.4639 14.4231C16.2347 14.4231 16.9209 14.7882 17.361 15.354C17.4712 15.495 17.5654 15.6479 17.6417 15.8099C17.7911 16.1282 17.8685 16.4756 17.8681 16.8273C17.8681 17.0195 17.8449 17.2063 17.8021 17.3855C17.5678 18.3664 16.7314 19.1162 15.7065 19.2194C15.6268 19.2274 15.5459 19.2315 15.4639 19.2315C15.0015 19.2319 14.5489 19.0981 14.161 18.8463C13.4991 18.4175 13.0598 17.6729 13.0598 16.8273ZM23.0942 13.9683C22.571 14.4677 22.1945 15.1007 22.0054 15.7989C21.0992 15.7655 20.1921 15.7655 19.2859 15.7989C19.0825 15.0442 18.6608 14.3784 18.0935 13.8727L20.5814 8.84227L23.0942 13.9683ZM12.3776 1.55412H28.7782L24.9045 12.9787C24.7379 13.0186 24.574 13.0694 24.414 13.1307L20.5874 5.32461L16.75 13.0841C16.5827 13.0266 16.4117 12.9806 16.2382 12.9461L12.3776 1.55412ZM28.2312 16.8274C28.2312 17.0684 28.1953 17.3011 28.129 17.5209C27.9719 18.0384 27.6455 18.4881 27.2023 18.7979C26.7995 19.0806 26.3192 19.2321 25.827 19.2316C24.717 19.2316 23.7805 18.4752 23.5052 17.4507C23.4505 17.2475 23.4228 17.0379 23.4228 16.8274C23.4228 16.4988 23.4892 16.1854 23.6091 15.8999C23.6709 15.7538 23.7471 15.6141 23.8365 15.483C24.2692 14.8444 24.9992 14.4232 25.827 14.4232C25.903 14.4232 25.9778 14.4271 26.052 14.4341C27.2726 14.5478 28.2312 15.5775 28.2312 16.8274ZM29.7852 16.8274C29.7852 14.895 28.3929 13.2827 26.559 12.9383L30.9458 0H10.2103L14.6038 12.9644C12.8337 13.3583 11.5059 14.9402 11.5059 16.8273C11.5059 18.2443 12.2547 19.4889 13.377 20.1884C12.8372 20.9927 12.1971 21.7495 11.4635 22.4417C10.3 23.5392 9.00396 24.3716 7.60666 24.9193C6.19918 24.0352 5.60425 22.3678 6.22207 20.9154L6.27051 20.8016L6.36133 20.588C7.90721 20.0488 9.0197 18.5775 9.0197 16.8502C9.0197 14.6676 7.2441 12.892 5.06163 12.892C2.87904 12.892 1.10344 14.6676 1.10344 16.8502C1.10344 17.9518 1.55633 18.9494 2.28507 19.6677C2.14915 19.9557 2.01118 20.2427 1.87117 20.5287C1.20479 21.8971 0.449653 23.4482 0.163992 25.1708C-0.403211 28.5917 0.511774 31.3263 2.7405 32.8709C4.09288 33.8082 5.46632 34.1768 6.84837 34.1768C9.45067 34.1768 12.0833 32.8693 14.6581 31.5903C16.5124 30.6694 18.4299 29.717 20.3239 29.2498C21.0287 29.0761 21.7538 28.9714 22.5215 28.8608C24.044 28.6411 25.6183 28.414 27.0128 27.6065C28.6293 26.6702 29.7357 25.0996 30.0486 23.2977C30.3172 21.7507 29.994 20.2013 29.2057 18.8872C29.5855 18.2673 29.7862 17.5543 29.7853 16.8273L29.7852 16.8274Z" fill="white"/>
</g>
<defs>
<clipPath id="clip0_316_5000">
<rect width="31" height="34.2695" fill="white"/>
</clipPath>
</defs>
</svg>
