<svg width="31" height="19" viewBox="0 0 31 19" fill="none" xmlns="http://www.w3.org/2000/svg">
<g clip-path="url(#clip0_316_4973)">
<path d="M8.7662 6.71316C8.7662 7.09303 8.80737 7.40097 8.87918 7.62681C8.97035 7.88089 9.08011 8.1279 9.20759 8.36584C9.25893 8.44795 9.27939 8.53005 9.27939 8.60198C9.27939 8.70454 9.21788 8.80723 9.08443 8.90992L8.43779 9.34101C8.3454 9.40265 8.253 9.43341 8.17078 9.43341C8.06821 9.43341 7.96553 9.38206 7.86284 9.28967C7.72455 9.14104 7.60083 8.97948 7.49338 8.80723C7.3907 8.63286 7.28801 8.43765 7.17515 8.20164C6.37448 9.14593 5.36843 9.6182 4.15725 9.6182C3.29506 9.6182 2.60725 9.37177 2.10423 8.87916C1.60132 8.38631 1.34473 7.72938 1.34473 6.90824C1.34473 6.03576 1.65267 5.32748 2.27884 4.7937C2.9049 4.25992 3.73645 3.99303 4.79372 3.99303C5.14271 3.99303 5.502 4.02379 5.88175 4.07513C6.26162 4.12647 6.65166 4.20857 7.06229 4.30097V3.55164C7.06229 2.77143 6.89796 2.22748 6.57973 1.90925C6.25132 1.59101 5.69696 1.43698 4.90658 1.43698C4.54729 1.43698 4.17784 1.47815 3.79797 1.57055C3.41822 1.66282 3.04864 1.7758 2.68935 1.91954C2.52515 1.99135 2.402 2.0324 2.33007 2.05298C2.25826 2.07357 2.20691 2.08374 2.16586 2.08374C2.02213 2.08374 1.95032 1.98105 1.95032 1.76551V1.26248C1.95032 1.09828 1.9709 0.975129 2.02213 0.90332C2.07347 0.831391 2.16586 0.759582 2.3096 0.687773C2.66889 0.502984 3.09998 0.348953 3.60288 0.225801C4.10603 0.0923555 4.63981 0.0308398 5.20435 0.0308398C6.42594 0.0308398 7.31901 0.307902 7.89384 0.86227C8.45838 1.41652 8.74586 2.25824 8.74586 3.38744V6.71316H8.76644H8.7662ZM4.59864 8.27345C4.93746 8.27345 5.28645 8.21193 5.65591 8.08866C6.02548 7.96551 6.35401 7.73967 6.63107 7.43173C6.7954 7.23677 6.91855 7.02122 6.98007 6.77479C7.0417 6.52849 7.08275 6.23072 7.08275 5.88173V5.45063C6.77146 5.37487 6.45616 5.31661 6.13834 5.27614C5.81832 5.23549 5.49606 5.2149 5.17347 5.2145C4.48566 5.2145 3.98275 5.34795 3.64405 5.62513C3.30523 5.90231 3.14103 6.29236 3.14103 6.80555C3.14103 7.28799 3.26418 7.64727 3.52078 7.8937C3.76721 8.1503 4.12649 8.27345 4.59864 8.27345ZM12.8414 9.38206C12.6566 9.38206 12.5334 9.35131 12.4513 9.27938C12.3692 9.21786 12.2973 9.07412 12.2358 8.87916L9.82359 0.944371C9.76183 0.738996 9.73108 0.605551 9.73108 0.533742C9.73108 0.369539 9.81318 0.277023 9.9775 0.277023H10.9834C11.1784 0.277023 11.312 0.307902 11.3838 0.379711C11.4659 0.441348 11.5275 0.585086 11.589 0.780047L13.3135 7.57547L14.9149 0.780047C14.9662 0.574793 15.0278 0.441348 15.1098 0.379711C15.192 0.318195 15.3358 0.277145 15.5206 0.277145H16.3417C16.5367 0.277145 16.6702 0.307902 16.7522 0.379711C16.8344 0.441348 16.9062 0.585086 16.9473 0.780047L18.5692 7.65757L20.3449 0.780047C20.4065 0.574793 20.4784 0.441348 20.5502 0.379711C20.6323 0.318195 20.7657 0.277145 20.9505 0.277145H21.9051C22.0694 0.277145 22.1618 0.359246 22.1618 0.533742C22.1618 0.585086 22.1515 0.63643 22.1412 0.697945C22.131 0.759582 22.1105 0.841684 22.0694 0.954664L19.5955 8.88933C19.534 9.09471 19.4622 9.22815 19.3799 9.28967C19.2978 9.35131 19.1644 9.39236 18.99 9.39236H18.1073C17.9122 9.39236 17.7787 9.3616 17.6965 9.28967C17.6144 9.21786 17.5426 9.08441 17.5015 8.87916L15.9104 2.25824L14.3296 8.86875C14.2784 9.07412 14.2167 9.20757 14.1346 9.27938C14.0525 9.35131 13.9088 9.38206 13.7241 9.38206H12.8412H12.8414ZM26.0317 9.65925C25.498 9.65925 24.9642 9.59761 24.451 9.47446C23.9377 9.35131 23.5375 9.21774 23.2706 9.06395C23.1062 8.97143 22.9933 8.86887 22.9523 8.77647C22.9124 8.68587 22.8914 8.58803 22.8907 8.489V7.96551C22.8907 7.74996 22.9728 7.64727 23.1268 7.64727C23.1897 7.64751 23.2521 7.65794 23.3116 7.67815C23.3731 7.69874 23.4655 7.73967 23.5682 7.78072C23.9308 7.94019 24.3093 8.06063 24.6973 8.14C25.0994 8.22161 25.5086 8.26286 25.9189 8.26316C26.5655 8.26316 27.0686 8.1503 27.4175 7.92446C27.7665 7.69862 27.9513 7.37021 27.9513 6.94929C27.9513 6.66193 27.8589 6.4258 27.6741 6.23072C27.4894 6.03576 27.1404 5.86126 26.6375 5.69694L25.149 5.23509C24.3996 4.99895 23.8454 4.64996 23.5066 4.18799C23.1679 3.73631 22.9934 3.23341 22.9934 2.69963C22.9934 2.26853 23.0858 1.88866 23.2706 1.56013C23.4552 1.23173 23.7017 0.944371 24.0096 0.718531C24.3175 0.482398 24.6665 0.307902 25.0772 0.18475C25.4877 0.0615977 25.9188 0.0102539 26.3704 0.0102539C26.5963 0.0102539 26.8324 0.0205469 27.0583 0.0513047C27.2944 0.0820625 27.5099 0.123113 27.7255 0.164164C27.9307 0.215508 28.1258 0.266852 28.3106 0.328488C28.4954 0.390004 28.639 0.451641 28.7417 0.513156C28.8854 0.595379 28.988 0.67748 29.0496 0.769875C29.1113 0.851977 29.142 0.964836 29.142 1.10857V1.59101C29.142 1.80656 29.0599 1.91954 28.9059 1.91954C28.8238 1.91954 28.6904 1.87837 28.516 1.79627C27.9307 1.52938 27.2738 1.39593 26.5451 1.39593C25.9599 1.39593 25.498 1.48832 25.1797 1.68341C24.8616 1.87837 24.6973 2.17614 24.6973 2.59694C24.6973 2.88441 24.8 3.13072 25.0052 3.3258C25.2106 3.52076 25.5904 3.71584 26.1344 3.89034L27.592 4.35231C28.3311 4.58845 28.8649 4.91685 29.1831 5.33765C29.5013 5.75857 29.6554 6.24101 29.6554 6.77479C29.6554 7.21618 29.5628 7.61652 29.3883 7.96551C29.2037 8.3145 28.9573 8.62244 28.639 8.86887C28.3208 9.12547 27.941 9.31025 27.4996 9.4437C27.0377 9.58744 26.5552 9.65925 26.0317 9.65925Z" fill="#252F3E"/>
<path d="M27.9716 14.6479C24.5945 17.1423 19.6878 18.4665 15.469 18.4665C9.55634 18.4665 4.22894 16.28 0.205119 12.6462C-0.113115 12.3589 0.17424 11.9688 0.55399 12.1946C4.90634 14.7199 10.2749 16.2493 15.8283 16.2493C19.5749 16.2493 23.6911 15.4692 27.4789 13.8678C28.0435 13.6111 28.5259 14.2374 27.9716 14.6479ZM29.3779 13.0466C28.9468 12.4923 26.5242 12.7797 25.4259 12.9131C25.0974 12.9543 25.046 12.6668 25.3438 12.4513C27.2736 11.0962 30.4455 11.4864 30.815 11.938C31.1845 12.3999 30.7123 15.5718 28.9057 17.091C28.6286 17.3271 28.3617 17.204 28.4849 16.896C28.8954 15.8797 29.809 13.5907 29.3779 13.0466Z" fill="#FF9900"/>
</g>
<defs>
<clipPath id="clip0_316_4973">
<rect width="31" height="18.5273" fill="white"/>
</clipPath>
</defs>
</svg>
