<svg width="31" height="12" viewBox="0 0 31 12" fill="none" xmlns="http://www.w3.org/2000/svg">
<g clip-path="url(#clip0_598_8922)">
<path d="M17.712 0.804963L17.78 0.850373C18.58 1.37864 19.1535 2.10315 19.5308 2.9786C19.6214 3.1144 19.5611 3.1899 19.3799 3.23513L19.0734 3.3136C18.3803 3.49215 17.8303 3.64231 17.1463 3.82086L16.7562 3.92246C16.6158 3.95721 16.577 3.94262 16.4276 3.77249L16.4065 3.74833C16.1934 3.50687 16.0338 3.34557 15.7516 3.20159L15.6971 3.17477C14.7463 2.70692 13.8256 2.84273 12.9653 3.40121C11.9389 4.06529 11.4106 5.04639 11.4257 6.26896C11.4408 7.47638 12.2709 8.47256 13.4633 8.63858C14.4897 8.77444 15.35 8.41219 16.0292 7.64246C16.165 7.47638 16.2858 7.29529 16.4367 7.08398H13.5237C13.2068 7.08398 13.1313 6.8878 13.237 6.63121L13.2893 6.50799C13.4833 6.05668 13.7842 5.40798 13.9795 5.03707L14.0222 4.95721C14.0744 4.86675 14.1803 4.74451 14.3841 4.74451H19.2414C19.4595 4.05336 19.8135 3.4003 20.2856 2.78236C21.3874 1.33342 22.7156 0.5787 24.5117 0.261797C26.0513 -0.00993711 27.5003 0.141006 28.8133 1.03153C30.0058 1.84655 30.7453 2.94844 30.9416 4.39733C31.1981 6.43497 30.6095 8.09523 29.2058 9.51402C28.2096 10.5253 26.9871 11.1592 25.5834 11.446C25.1759 11.5215 24.7683 11.5365 24.3759 11.5818C23.0024 11.5516 21.7496 11.1592 20.6931 10.2536C19.95 9.6112 19.4381 8.82179 19.1838 7.90269C19.0053 8.26286 18.793 8.60527 18.5499 8.92533C17.4631 10.3593 16.0444 11.2497 14.2483 11.4913C12.7691 11.6875 11.3956 11.4007 10.1881 10.4951C9.07119 9.64983 8.43727 8.53292 8.27119 7.1444C8.07501 5.49916 8.558 4.02 9.55417 2.722C10.6259 1.31828 12.0446 0.427817 13.7803 0.110854C15.1729 -0.141021 16.5072 0.0142816 17.712 0.804963H17.712ZM24.892 2.96782L24.8437 2.9786C23.4401 3.29556 22.5345 4.18602 22.2024 5.60482C21.9307 6.78209 22.5042 7.9745 23.591 8.45748C24.4211 8.81973 25.2513 8.77444 26.0512 8.3669C27.2436 7.74812 27.8926 6.78209 27.9681 5.48409C27.953 5.28791 27.953 5.13691 27.9228 4.98597C27.6542 3.50856 26.3083 2.66557 24.892 2.96782ZM7.04862 5.72555C7.10899 5.72555 7.1392 5.77084 7.1392 5.8312L7.10899 6.19345C7.10899 6.25382 7.04862 6.29911 7.00333 6.29911L3.71297 6.28403C3.65261 6.28403 3.63753 6.23874 3.66769 6.19345L3.87899 5.81612C3.90921 5.77084 3.96957 5.72555 4.02994 5.72555H7.04862ZM7.38066 4.33696C7.44103 4.33696 7.47124 4.38225 7.45616 4.42754L7.33537 4.78979C7.3203 4.85016 7.25993 4.88031 7.19957 4.88031L0.060363 4.89545C-2.24111e-06 4.89545 -0.0150784 4.86524 0.0150739 4.81995L0.332037 4.41247C0.36225 4.36718 0.437691 4.33696 0.498056 4.33696H7.38066ZM8.16553 2.94838C8.2259 2.94838 8.24097 2.99367 8.21082 3.03896L7.95422 3.43137C7.92401 3.47665 7.84857 3.52194 7.80328 3.52194L2.33953 3.50681C2.2791 3.50681 2.26403 3.47665 2.29418 3.43137L2.61114 3.02389C2.64136 2.9786 2.7168 2.94838 2.77716 2.94838H8.16553Z" fill="#00ACD7"/>
</g>
<defs>
<clipPath id="clip0_598_8922">
<rect width="31" height="11.625" fill="white"/>
</clipPath>
</defs>
</svg>
