<svg width="31" height="47" viewBox="0 0 31 47" fill="none" xmlns="http://www.w3.org/2000/svg">
<g clip-path="url(#clip0_598_8993)">
<path d="M7.75 46.5C12.028 46.5 15.5 43.028 15.5 38.75V31H7.75C3.472 31 0 34.472 0 38.75C0 43.028 3.472 46.5 7.75 46.5Z" fill="#0ACF83"/>
<path d="M0 23.25C0 18.972 3.472 15.5 7.75 15.5H15.5V31H7.75C3.472 31 0 27.528 0 23.25Z" fill="#A259FF"/>
<path d="M0 7.75C0 3.472 3.472 0 7.75 0H15.5V15.5H7.75C3.472 15.5 0 12.028 0 7.75Z" fill="#F24E1E"/>
<path d="M15.5 0H23.25C27.528 0 31 3.472 31 7.75C31 12.028 27.528 15.5 23.25 15.5H15.5V0Z" fill="#FF7262"/>
<path d="M31 23.25C31 27.528 27.528 31 23.25 31C18.972 31 15.5 27.528 15.5 23.25C15.5 18.972 18.972 15.5 23.25 15.5C27.528 15.5 31 18.972 31 23.25Z" fill="#1ABCFE"/>
</g>
<defs>
<clipPath id="clip0_598_8993">
<rect width="31" height="46.5" fill="white"/>
</clipPath>
</defs>
</svg>
