<svg width="31" height="31" viewBox="0 0 31 31" fill="none" xmlns="http://www.w3.org/2000/svg">
<g clip-path="url(#clip0_598_8984)">
<path d="M9.93991 29.6599C9.21989 29.6599 8.53995 29.34 8.07991 28.7599L1.08009 20.06C0.620051 19.4799 0.440106 18.74 0.620051 18.0199L3.12003 7.15996C3.28 6.43993 3.76001 5.85989 4.42009 5.53997L14.54 0.699848C14.8601 0.540004 15.2201 0.459961 15.5801 0.459961C15.9401 0.459961 16.3 0.539883 16.62 0.699969L26.7401 5.51998C27.4001 5.83991 27.8801 6.41995 28.04 7.13998L30.54 17.9999C30.7001 18.7199 30.54 19.4599 30.0801 20.04L23.08 28.74C22.62 29.2999 21.9401 29.6399 21.22 29.6399L9.94015 29.6599H9.93991Z" fill="#326DE6"/>
<path d="M15.56 0.96007C15.8401 0.96007 16.1201 1.02001 16.3801 1.14002L26.5001 5.96003C27.0201 6.22002 27.4201 6.70004 27.5401 7.26009L30.04 18.12C30.18 18.7001 30.04 19.3001 29.6601 19.76L22.6601 28.4601C22.3001 28.92 21.74 29.18 21.1601 29.18H9.94005C9.36001 29.18 8.80008 28.92 8.44007 28.4601L1.44012 19.76C1.08011 19.3001 0.940003 18.7001 1.06013 18.12L3.56011 7.26009C3.70009 6.68005 4.08009 6.20004 4.60006 5.96003L14.7202 1.12016C14.9802 1.02013 15.2802 0.960191 15.5601 0.960191L15.56 0.96007ZM15.56 0.0200195C15.1401 0.0200195 14.7201 0.120043 14.32 0.299988L4.20009 5.14011C3.40002 5.5201 2.84009 6.22002 2.64004 7.08003L0.140058 17.9401C-0.059868 18.8001 0.140058 19.6801 0.700116 20.3801L7.70006 29.0801C8.24014 29.76 9.06007 30.14 9.92007 30.14H21.14C22 30.14 22.8201 29.76 23.36 29.0801L30.3601 20.38C30.92 19.7001 31.1201 18.8001 30.92 17.94L28.4201 7.08003C28.2201 6.22002 27.6601 5.5201 26.8601 5.14011L16.78 0.299867C16.4 0.120043 15.9801 0.0200195 15.56 0.0200195Z" fill="white"/>
<path d="M25.7 17.2599C25.6801 17.2599 25.6801 17.2599 25.7 17.2599H25.6801C25.6601 17.2599 25.6401 17.2599 25.6401 17.2399C25.6001 17.2399 25.5602 17.22 25.5201 17.22C25.3801 17.2 25.2601 17.18 25.1401 17.18C25.08 17.18 25.0201 17.18 24.9401 17.1599H24.9201C24.5001 17.1199 24.1601 17.08 23.84 16.98C23.7001 16.9199 23.6601 16.84 23.62 16.7599C23.62 16.7399 23.6 16.7399 23.6 16.72L23.34 16.64C23.4629 15.6992 23.4155 14.7439 23.2001 13.8199C22.9817 12.8882 22.6027 12.0016 22.0801 11.1999L22.2801 11.02V10.98C22.2801 10.88 22.3001 10.78 22.38 10.6799C22.62 10.4599 22.9201 10.28 23.2801 10.0599C23.34 10.02 23.4 9.99999 23.4601 9.95991C23.5801 9.89996 23.6801 9.84002 23.8001 9.75998C23.8201 9.74 23.86 9.72002 23.9001 9.68006C23.9201 9.65996 23.9401 9.65996 23.9401 9.63998C24.22 9.39997 24.2801 9 24.0801 8.73989C23.98 8.5999 23.8001 8.51998 23.62 8.51998C23.4602 8.51998 23.3201 8.57992 23.1801 8.67994L23.1401 8.71991C23.1002 8.73989 23.0801 8.77997 23.0401 8.79995C22.9401 8.89997 22.86 8.97989 22.7801 9.07992C22.7401 9.11988 22.7002 9.17994 22.6401 9.2199C22.36 9.51997 22.1 9.75998 21.8401 9.93992C21.7801 9.97989 21.7202 9.99999 21.6601 9.99999C21.6202 9.99999 21.5801 9.99999 21.5401 9.97989H21.5001L21.26 10.14C21 9.86 20.7201 9.61999 20.4401 9.37999C19.2345 8.43765 17.7837 7.86144 16.2601 7.71991L16.2401 7.45992L16.2001 7.41996C16.1401 7.3599 16.0601 7.29996 16.04 7.15998C16.0201 6.83992 16.0601 6.47991 16.1001 6.07994V6.05996C16.1001 5.9999 16.1201 5.91998 16.1401 5.85991C16.16 5.74003 16.18 5.61991 16.2001 5.47992V5.29998C16.2001 4.93996 15.92 4.64001 15.5801 4.64001C15.42 4.64001 15.2601 4.71994 15.1401 4.83994C15.0202 4.95994 14.9601 5.11991 14.9601 5.29998V5.45994C14.9601 5.59992 14.9801 5.71993 15.0201 5.83993C15.04 5.9 15.04 5.95994 15.06 6.03998V6.05996C15.1 6.45993 15.16 6.81994 15.1201 7.14C15.1001 7.27998 15.0201 7.33992 14.9601 7.39998L14.9202 7.43994L14.9001 7.69993C14.54 7.73989 14.18 7.77985 13.82 7.8599C12.2801 8.19993 10.9201 8.98001 9.86013 10.0999L9.66009 9.95991H9.62013C9.58016 9.95991 9.54008 9.97989 9.50012 9.97989C9.44006 9.97989 9.38012 9.95991 9.32005 9.91994C9.06007 9.74 8.80008 9.47989 8.52011 9.17994C8.48015 9.13998 8.44019 9.07992 8.38013 9.03996C8.30008 8.93993 8.22004 8.85989 8.12002 8.75999C8.10004 8.73989 8.06007 8.72003 8.02011 8.67994C8.00013 8.65996 7.98015 8.65996 7.98015 8.63998C7.85624 8.53761 7.70083 8.48107 7.5401 8.4799C7.36003 8.4799 7.18009 8.55994 7.08006 8.69992C6.88002 8.95991 6.94008 9.35989 7.22005 9.59989C7.24003 9.59989 7.24003 9.62 7.26001 9.62C7.29997 9.63998 7.32007 9.67994 7.36003 9.69992C7.48004 9.77984 7.58006 9.8399 7.70006 9.89996C7.76013 9.91994 7.82007 9.95991 7.88013 9.99999C8.24002 10.2199 8.54009 10.4 8.7801 10.62C8.88012 10.7199 8.88012 10.8199 8.88012 10.9199V10.9599L9.08005 11.14C9.04009 11.1999 9.00012 11.24 8.98002 11.2999C7.98003 12.88 7.60004 14.74 7.86003 16.58L7.60004 16.6599C7.60004 16.68 7.58006 16.68 7.58006 16.6999C7.5401 16.7799 7.48004 16.8599 7.36003 16.9199C7.06008 17.0199 6.70007 17.06 6.28012 17.1H6.26002C6.20007 17.1 6.12003 17.1 6.06009 17.1199C5.94009 17.1199 5.82008 17.1399 5.6801 17.1599C5.64014 17.1599 5.60018 17.18 5.56009 17.18C5.54011 17.18 5.52013 17.18 5.50003 17.2C5.14002 17.2799 4.91999 17.6199 4.98005 17.9399C5.04012 18.22 5.30011 18.4 5.62004 18.4C5.6801 18.4 5.72006 18.4 5.78012 18.3799C5.8001 18.3799 5.82008 18.3799 5.82008 18.3599C5.86004 18.3599 5.9 18.34 5.93996 18.34C6.08007 18.3 6.18009 18.26 6.3001 18.2C6.36004 18.18 6.41998 18.1399 6.48004 18.12H6.50002C6.88002 17.9799 7.22005 17.8599 7.5401 17.82H7.58006C7.70006 17.82 7.78011 17.8799 7.84005 17.92C7.86003 17.92 7.86003 17.94 7.88001 17.94L8.1601 17.9C8.64011 19.3799 9.56006 20.7 10.7801 21.66C11.0601 21.8799 11.34 22.06 11.6401 22.24L11.5201 22.4999C11.5201 22.52 11.5401 22.52 11.5401 22.5399C11.58 22.6199 11.62 22.7199 11.58 22.8599C11.4601 23.16 11.2801 23.4599 11.0601 23.8V23.8199C11.0201 23.88 10.9801 23.92 10.9402 23.9799C10.8601 24.0799 10.8001 24.1799 10.72 24.2999C10.7 24.3199 10.6801 24.3599 10.6601 24.4C10.6601 24.42 10.6401 24.4399 10.6401 24.4399C10.4801 24.78 10.6001 25.16 10.9001 25.2999C10.98 25.3399 11.0601 25.36 11.1401 25.36C11.3801 25.36 11.6201 25.1999 11.7401 24.9799C11.7401 24.9599 11.7601 24.9399 11.7601 24.9399C11.7801 24.9 11.8001 24.86 11.82 24.8399C11.8801 24.6999 11.9001 24.5999 11.94 24.4799L12.0001 24.2999C12.1401 23.9 12.2401 23.5799 12.4201 23.3C12.5 23.18 12.6001 23.16 12.68 23.1199C12.7 23.1199 12.7 23.1199 12.72 23.0999L12.8601 22.8399C13.7401 23.18 14.7001 23.3599 15.66 23.3599C16.2401 23.3599 16.8401 23.3 17.4002 23.16C17.7526 23.0812 18.0999 22.981 18.4401 22.8599L18.56 23.0799C18.5801 23.0799 18.5801 23.0799 18.6001 23.0999C18.7001 23.1199 18.78 23.16 18.8601 23.28C19.02 23.5599 19.14 23.9 19.28 24.28V24.2999L19.3401 24.4799C19.38 24.5999 19.4 24.7199 19.46 24.8399C19.4801 24.8799 19.5 24.9 19.52 24.9399C19.52 24.9599 19.5401 24.9799 19.5401 24.9799C19.66 25.2199 19.9 25.36 20.14 25.36C20.2201 25.36 20.3001 25.3399 20.38 25.2999C20.52 25.22 20.64 25.0999 20.6801 24.9399C20.7201 24.78 20.7201 24.5999 20.6401 24.4399C20.6401 24.42 20.62 24.42 20.62 24.4C20.6001 24.36 20.5801 24.32 20.5601 24.2999C20.5 24.1799 20.4201 24.0799 20.3401 23.9799C20.3001 23.92 20.2601 23.88 20.2202 23.8201V23.8C20 23.4599 19.8 23.16 19.7001 22.8599C19.6601 22.7199 19.7001 22.64 19.7201 22.54C19.7201 22.52 19.7401 22.52 19.7401 22.5L19.64 22.26C20.7001 21.64 21.6001 20.7599 22.2801 19.68C22.6401 19.1199 22.9201 18.4999 23.12 17.8799L23.36 17.9199C23.3801 17.9199 23.3801 17.8999 23.4 17.8999C23.48 17.8599 23.5401 17.8 23.6601 17.8H23.7001C24.0201 17.84 24.36 17.9598 24.7401 18.0999H24.7601C24.8201 18.1199 24.88 18.1599 24.9401 18.1799C25.0601 18.2399 25.1601 18.2799 25.3001 18.32C25.34 18.32 25.38 18.34 25.4201 18.34C25.4401 18.34 25.46 18.34 25.48 18.3599C25.5401 18.3799 25.58 18.3799 25.6401 18.3799C25.9401 18.3799 26.2 18.18 26.2801 17.92C26.2801 17.68 26.0601 17.3599 25.7 17.26V17.2599ZM16.44 16.2799L15.56 16.7L14.68 16.2799L14.4601 15.34L15.06 14.58H16.04L16.6401 15.34L16.4401 16.2799H16.44ZM21.6601 14.2C21.8153 14.8614 21.8625 15.5434 21.8001 16.2198L18.7401 15.34C18.4601 15.2601 18.3001 14.98 18.3601 14.7C18.38 14.62 18.4201 14.5399 18.4801 14.48L20.9001 12.2999C21.24 12.86 21.5 13.5001 21.6601 14.2ZM19.9401 11.1L17.3201 12.96C17.1001 13.1 16.8 13.0599 16.6201 12.84C16.5601 12.7799 16.5401 12.6999 16.52 12.62L16.3401 9.35989C17.7022 9.51673 18.971 10.1301 19.9401 11.1ZM14.1401 9.45979C14.3601 9.41983 14.56 9.37987 14.7801 9.3399L14.6001 12.5398C14.5801 12.8198 14.3601 13.0598 14.06 13.0598C13.9801 13.0598 13.8801 13.0398 13.82 12.9998L11.1601 11.1C11.9801 10.28 13.0001 9.71978 14.1401 9.45979ZM10.2 12.2998L12.58 14.4198C12.8 14.5999 12.82 14.9398 12.6401 15.1598C12.58 15.2397 12.5001 15.2998 12.4001 15.3199L9.30007 16.2198C9.18007 14.8598 9.48002 13.4799 10.2 12.2998ZM9.65997 17.7198L12.8401 17.1798C13.1001 17.1598 13.3401 17.3398 13.4001 17.5998C13.42 17.7197 13.42 17.8199 13.3801 17.9199L12.1601 20.8598C11.0401 20.1398 10.14 19.0398 9.65997 17.7198ZM16.9601 21.6998C16.5001 21.7998 16.04 21.8598 15.56 21.8598C14.8601 21.8598 14.18 21.7399 13.5402 21.5399L15.1201 18.6799C15.28 18.4998 15.54 18.4199 15.7601 18.5399C15.8534 18.5971 15.9349 18.6718 16.0001 18.7598L17.54 21.5399C17.3601 21.5998 17.16 21.6399 16.96 21.6998H16.9601ZM20.86 18.9199C20.3601 19.7198 19.7 20.3598 18.9401 20.8598L17.6801 17.8397C17.6201 17.5998 17.7201 17.3398 17.9601 17.2197C18.04 17.1798 18.14 17.1598 18.2401 17.1598L21.4401 17.6999C21.3201 18.1398 21.12 18.5399 20.86 18.9199Z" fill="white"/>
</g>
<defs>
<clipPath id="clip0_598_8984">
<rect width="31" height="30.1523" fill="white"/>
</clipPath>
</defs>
</svg>
