<svg width="31" height="31" viewBox="0 0 31 31" fill="none" xmlns="http://www.w3.org/2000/svg">
<g clip-path="url(#clip0_598_9015)">
<path d="M0 0H31V31H0V0Z" fill="#F7DF1E"/>
<path d="M8.151 25.9059L10.5232 24.4702C10.981 25.2816 11.3973 25.9682 12.3959 25.9682C13.3532 25.9682 13.9568 25.5938 13.9568 24.1373V14.2321H16.87V24.1785C16.87 27.1957 15.1013 28.5692 12.5208 28.5692C10.1903 28.5692 8.8376 27.3622 8.15088 25.9056M18.4523 25.5937L20.8243 24.2204C21.4488 25.2401 22.2604 25.9892 23.696 25.9892C24.9032 25.9892 25.6729 25.3856 25.6729 24.5532C25.6729 23.5545 24.8822 23.2006 23.5504 22.6182L22.8222 22.3057C20.7204 21.4112 19.3263 20.2875 19.3263 17.9152C19.3263 15.7302 20.9909 14.0654 23.5921 14.0654C25.4442 14.0654 26.7759 14.7106 27.7331 16.3961L25.4647 17.8529C24.9652 16.9581 24.4244 16.6044 23.592 16.6044C22.7388 16.6044 22.1978 17.1454 22.1978 17.8529C22.1978 18.7268 22.7388 19.0808 23.9873 19.6218L24.7155 19.9339C27.1919 20.9953 28.5861 22.0772 28.5861 24.5117C28.5861 27.1339 26.526 28.5696 23.7584 28.5696C21.0533 28.5696 19.3053 27.2794 18.4522 25.5938" fill="black"/>
</g>
<defs>
<clipPath id="clip0_598_9015">
<rect width="31" height="31" fill="white"/>
</clipPath>
</defs>
</svg>
