<svg width="32" height="25" viewBox="0 0 32 25" fill="none" xmlns="http://www.w3.org/2000/svg">
<g clip-path="url(#clip0_316_4991)">
<path d="M5.27821 17.1729L3.65652 17.7652L3.56934 22.5897L9.18324 20.5389C7.25785 19.8923 5.85171 18.7542 5.27821 17.1729Z" fill="#FDBD39"/>
<path d="M6.12686 12.0701L0.5 14.1257L3.65643 17.7653L5.27812 17.1729C4.70631 15.5961 5.05894 13.8138 6.12686 12.0701Z" fill="#F69833"/>
<path d="M15.5962 5.10866C8.43099 7.72623 3.81162 13.1275 5.27855 17.1729L31.2262 7.69377C29.7592 3.64839 22.7615 2.49098 15.5962 5.10842" fill="#FECF33"/>
<path d="M20.9084 19.7581C28.0735 17.1406 32.7017 11.7631 31.2259 7.69391L5.27832 17.1729C6.75397 21.2421 13.7431 22.3756 20.9084 19.7581Z" fill="#EE6723"/>
<path d="M31.2259 7.69379L5.27832 17.173C5.78643 18.5741 7.72393 19.2643 10.4426 19.2643C13.093 19.2643 16.4858 18.6088 20.0229 17.3166C27.1882 14.6991 32.2294 10.461 31.2259 7.69403" fill="#F69833"/>
<path d="M26.0611 5.60248C23.4106 5.60248 20.0178 6.25808 16.4806 7.55015C9.31552 10.1677 4.27426 14.4058 5.27765 17.1729L31.2253 7.69377C30.7173 6.29271 28.7796 5.60248 26.0611 5.60248Z" fill="#FDBD39"/>
<path d="M24.6289 22.8453H24.6287C23.8653 22.8453 22.739 22.1557 21.2812 20.7957C19.5563 19.1867 17.5806 16.8301 15.7179 14.1598C13.8551 11.4897 12.3245 8.82034 11.4079 6.64332C10.4093 4.27073 10.2669 2.81191 10.9847 2.30743C11.1421 2.19688 11.3319 2.14093 11.5485 2.14093C12.1324 2.14093 13.2701 2.57566 15.3739 4.64672L15.4199 4.69201L15.4136 4.75631C15.3992 4.90495 15.3861 5.0537 15.3741 5.20254L15.3507 5.49511L15.1443 5.28719C12.8776 3.0036 11.8798 2.75706 11.556 2.75706C11.4636 2.75706 11.3901 2.77582 11.3375 2.81288C11.026 3.0317 11.006 4.10313 11.9742 6.40307C12.8744 8.54134 14.3827 11.1705 16.2214 13.8059C18.0602 16.4416 20.0056 18.7635 21.6997 20.3437C23.5263 22.0477 24.3495 22.2316 24.6185 22.2316C24.7114 22.2316 24.787 22.2117 24.8429 22.1723C25.1714 21.9416 25.1718 20.7937 24.0921 18.3182L24.0425 18.2046L24.1511 18.1453C24.2596 18.0858 24.3646 18.0273 24.4629 17.9714L24.593 17.8975L24.6528 18.0347C25.4184 19.7888 26.134 22.0181 25.1957 22.6778C25.0375 22.7889 24.8469 22.8453 24.6289 22.8453ZM24.6287 22.5747H24.6289L24.6288 22.7099L24.6287 22.5747Z" fill="#EE6723"/>
<path d="M21.0817 19.6841L21.0708 19.8189C20.8897 22.0604 20.4127 24.7552 19.169 24.8642C19.1441 24.8665 19.1182 24.8675 19.0921 24.8675C18.2474 24.8675 17.4481 23.6571 16.7166 21.2699C16.0245 19.0113 15.4875 15.9789 15.2044 12.7312C14.9213 9.48404 14.9255 6.40402 15.2163 4.05868C15.5334 1.50287 16.1367 0.168055 17.0097 0.0915234C17.0356 0.0891016 17.0624 0.0878906 17.0888 0.0878906C17.7016 0.0878906 18.6253 0.781758 19.5708 4.01423L18.9535 4.13339C18.6378 3.05323 18.2936 2.1747 17.952 1.57105C17.6361 1.01268 17.3289 0.705227 17.0871 0.705227C17.0791 0.705227 17.0711 0.705469 17.0632 0.706074C16.6848 0.739375 16.1337 1.65727 15.8264 4.13484C15.5408 6.43829 15.5373 9.47205 15.8167 12.6774C16.0963 15.8832 16.6245 18.8704 17.3042 21.0886C17.6085 22.0819 17.9424 22.9006 18.2697 23.4562C18.5714 23.9684 18.8635 24.2506 19.0919 24.2506C19.0999 24.2506 19.1076 24.2502 19.1155 24.2496C19.4776 24.2179 20.1599 23.2627 20.4471 19.9019L21.0817 19.6841Z" fill="#EE6723"/>
</g>
<defs>
<clipPath id="clip0_316_4991">
<rect width="31" height="24.8242" fill="white" transform="translate(0.5 0.0878906)"/>
</clipPath>
</defs>
</svg>
