<svg width="31" height="31" viewBox="0 0 31 31" fill="none" xmlns="http://www.w3.org/2000/svg">
<g clip-path="url(#clip0_316_4976)">
<path d="M9.9404 29.66C9.22038 29.66 8.54043 29.34 8.0804 28.76L1.08057 20.06C0.620539 19.48 0.440594 18.7401 0.620539 18.0199L3.12052 7.16002C3.28048 6.43999 3.7605 5.85996 4.42058 5.54003L14.5405 0.699909C14.8606 0.540065 15.2206 0.460022 15.5806 0.460022C15.9406 0.460022 16.3005 0.539944 16.6205 0.70003L26.7406 5.52005C27.4005 5.83998 27.8806 6.42001 28.0405 7.14004L30.5405 18C30.7006 18.72 30.5405 19.46 30.0806 20.04L23.0805 28.74C22.6205 29.3 21.9405 29.64 21.2205 29.64L9.94064 29.66H9.9404Z" fill="#326DE6"/>
<path d="M15.56 0.960009C15.8401 0.960009 16.1201 1.01995 16.3801 1.13995L26.5001 5.95997C27.0201 6.21996 27.4201 6.69997 27.5401 7.26003L30.04 18.12C30.18 18.7 30.04 19.3 29.6601 19.7599L22.6601 28.46C22.3001 28.92 21.74 29.1799 21.1601 29.1799H9.94005C9.36001 29.1799 8.80008 28.92 8.44007 28.46L1.44012 19.7599C1.08011 19.3 0.940003 18.7 1.06013 18.12L3.56011 7.26003C3.70009 6.67999 4.08009 6.19998 4.60006 5.95997L14.7202 1.1201C14.9802 1.02007 15.2802 0.96013 15.5601 0.96013L15.56 0.960009ZM15.56 0.0199585C15.1401 0.0199585 14.7201 0.119982 14.32 0.299927L4.20009 5.14004C3.40002 5.52004 2.84009 6.21996 2.64004 7.07997L0.140058 17.94C-0.059868 18.8 0.140058 19.68 0.700116 20.3801L7.70006 29.08C8.24014 29.76 9.06007 30.14 9.92007 30.14H21.14C22 30.14 22.8201 29.76 23.36 29.08L30.3601 20.3799C30.92 19.7 31.1201 18.8 30.92 17.9399L28.4201 7.07997C28.2201 6.21996 27.6601 5.52004 26.8601 5.14004L16.78 0.299806C16.4 0.119982 15.9801 0.0199585 15.56 0.0199585Z" fill="white"/>
<path d="M25.6996 17.26C25.6796 17.26 25.6796 17.26 25.6996 17.26H25.6796C25.6596 17.26 25.6396 17.26 25.6396 17.24C25.5997 17.24 25.5597 17.22 25.5196 17.22C25.3796 17.2 25.2596 17.1801 25.1396 17.1801C25.0796 17.1801 25.0196 17.1801 24.9396 17.16H24.9196C24.4996 17.12 24.1596 17.08 23.8396 16.98C23.6996 16.92 23.6596 16.84 23.6195 16.76C23.6195 16.74 23.5995 16.74 23.5995 16.72L23.3396 16.6401C23.4624 15.6993 23.415 14.744 23.1996 13.82C22.9812 12.8882 22.6022 12.0016 22.0796 11.2L22.2796 11.02V10.9801C22.2796 10.88 22.2996 10.78 22.3795 10.68C22.6195 10.46 22.9196 10.28 23.2796 10.06C23.3396 10.02 23.3995 10 23.4596 9.95997C23.5796 9.90002 23.6796 9.84008 23.7996 9.76004C23.8196 9.74006 23.8595 9.72008 23.8996 9.68012C23.9196 9.66002 23.9396 9.66002 23.9396 9.64004C24.2195 9.40003 24.2796 9.00006 24.0796 8.73995C23.9795 8.59996 23.7996 8.52004 23.6195 8.52004C23.4597 8.52004 23.3196 8.57998 23.1796 8.68001L23.1396 8.71997C23.0997 8.73995 23.0796 8.78003 23.0396 8.80001C22.9396 8.90003 22.8595 8.97995 22.7796 9.07998C22.7397 9.11994 22.6997 9.18 22.6396 9.21996C22.3595 9.52003 22.0996 9.76004 21.8396 9.93999C21.7796 9.97995 21.7197 10 21.6596 10C21.6197 10 21.5796 10 21.5396 9.97995H21.4997L21.2595 10.14C20.9995 9.86006 20.7196 9.62006 20.4396 9.38005C19.234 8.43771 17.7832 7.86151 16.2596 7.71997L16.2396 7.45999L16.1996 7.42002C16.1396 7.35996 16.0596 7.30002 16.0395 7.16004C16.0196 6.83999 16.0596 6.47997 16.0996 6.08V6.06002C16.0996 5.99996 16.1196 5.92004 16.1396 5.85997C16.1595 5.74009 16.1795 5.61997 16.1996 5.47998V5.30004C16.1996 4.94003 15.9195 4.64008 15.5796 4.64008C15.4195 4.64008 15.2596 4.72 15.1396 4.84C15.0197 4.96001 14.9596 5.11997 14.9596 5.30004V5.46C14.9596 5.59999 14.9796 5.71999 15.0196 5.83999C15.0396 5.90006 15.0396 5.96 15.0595 6.04004V6.06002C15.0995 6.45999 15.1596 6.82001 15.1196 7.14006C15.0996 7.28004 15.0196 7.33998 14.9596 7.40004L14.9197 7.44001L14.8996 7.69999C14.5396 7.73995 14.1795 7.77992 13.8195 7.85996C12.2796 8.19999 10.9196 8.98008 9.85964 10.1L9.6596 9.95997H9.61964C9.57968 9.95997 9.53959 9.97995 9.49963 9.97995C9.43957 9.97995 9.37963 9.95997 9.31957 9.92C9.05958 9.74006 8.79959 9.47995 8.51962 9.18C8.47966 9.14004 8.4397 9.07998 8.37964 9.04002C8.29959 8.93999 8.21955 8.85995 8.11953 8.76005C8.09955 8.73995 8.05959 8.72009 8.01963 8.68001C7.99965 8.66002 7.97966 8.66002 7.97966 8.64004C7.85575 8.53767 7.70034 8.48114 7.53961 8.47996C7.35954 8.47996 7.1796 8.56 7.07957 8.69999C6.87953 8.95997 6.93959 9.35995 7.21956 9.59995C7.23954 9.59995 7.23954 9.62006 7.25952 9.62006C7.29948 9.64004 7.31958 9.68 7.35954 9.69998C7.47955 9.7799 7.57957 9.83996 7.69957 9.90002C7.75964 9.92 7.81958 9.95997 7.87964 10C8.23953 10.22 8.5396 10.4 8.77961 10.62C8.87963 10.72 8.87963 10.82 8.87963 10.92V10.96L9.07956 11.14C9.0396 11.2 8.99964 11.24 8.97954 11.3C7.97954 12.88 7.59955 14.74 7.85954 16.58L7.59955 16.66C7.59955 16.6801 7.57957 16.6801 7.57957 16.6999C7.53961 16.78 7.47955 16.86 7.35954 16.92C7.05959 17.02 6.69958 17.0601 6.27963 17.1H6.25953C6.19959 17.1 6.11954 17.1 6.0596 17.12C5.9396 17.12 5.81959 17.14 5.67961 17.16C5.63965 17.16 5.59969 17.1801 5.55961 17.1801C5.53963 17.1801 5.51964 17.1801 5.49954 17.2C5.13953 17.28 4.9195 17.62 4.97957 17.9399C5.03963 18.22 5.29962 18.4001 5.61955 18.4001C5.67961 18.4001 5.71957 18.4001 5.77963 18.38C5.79961 18.38 5.81959 18.38 5.81959 18.36C5.85955 18.36 5.89952 18.34 5.93948 18.34C6.07958 18.3001 6.17961 18.2601 6.29961 18.2C6.35955 18.1801 6.41949 18.14 6.47956 18.1201H6.49954C6.87953 17.98 7.21956 17.86 7.53961 17.82H7.57957C7.69957 17.82 7.77962 17.88 7.83956 17.9201C7.85954 17.9201 7.85954 17.94 7.87952 17.94L8.15961 17.9001C8.63963 19.38 9.55957 20.7 10.7796 21.66C11.0596 21.88 11.3395 22.06 11.6396 22.2401L11.5196 22.5C11.5196 22.5201 11.5396 22.5201 11.5396 22.5399C11.5795 22.62 11.6195 22.72 11.5795 22.86C11.4597 23.16 11.2796 23.46 11.0596 23.8V23.82C11.0196 23.8801 10.9796 23.92 10.9397 23.98C10.8596 24.08 10.7996 24.18 10.7195 24.3C10.6996 24.32 10.6796 24.3599 10.6596 24.4C10.6596 24.42 10.6396 24.44 10.6396 24.44C10.4796 24.78 10.5996 25.16 10.8996 25.3C10.9795 25.34 11.0596 25.3601 11.1396 25.3601C11.3796 25.3601 11.6196 25.2 11.7396 24.9799C11.7396 24.96 11.7596 24.94 11.7596 24.94C11.7796 24.9 11.7996 24.8601 11.8195 24.84C11.8796 24.7 11.8996 24.6 11.9396 24.48L11.9996 24.3C12.1396 23.9 12.2396 23.58 12.4196 23.3C12.4995 23.18 12.5996 23.16 12.6796 23.12C12.6995 23.12 12.6995 23.1199 12.7195 23.1L12.8596 22.84C13.7396 23.18 14.6996 23.36 15.6596 23.36C16.2396 23.36 16.8396 23.3 17.3997 23.16C17.7521 23.0812 18.0994 22.981 18.4396 22.86L18.5595 23.08C18.5796 23.08 18.5796 23.08 18.5996 23.1C18.6996 23.1199 18.7795 23.16 18.8596 23.28C19.0195 23.56 19.1395 23.9 19.2795 24.28V24.3L19.3396 24.48C19.3796 24.6 19.3995 24.72 19.4595 24.84C19.4796 24.8799 19.4996 24.9 19.5195 24.94C19.5195 24.96 19.5396 24.9799 19.5396 24.9799C19.6595 25.22 19.8995 25.3601 20.1395 25.3601C20.2196 25.3601 20.2996 25.34 20.3795 25.3C20.5195 25.2201 20.6395 25.1 20.6796 24.94C20.7196 24.78 20.7196 24.6 20.6397 24.44C20.6397 24.42 20.6196 24.42 20.6196 24.4C20.5996 24.3601 20.5796 24.3201 20.5596 24.3C20.4995 24.18 20.4196 24.08 20.3396 23.98C20.2996 23.92 20.2597 23.8801 20.2197 23.8201V23.8C19.9996 23.46 19.7995 23.16 19.6996 22.86C19.6596 22.72 19.6996 22.6401 19.7196 22.54C19.7196 22.5201 19.7396 22.5201 19.7396 22.5001L19.6395 22.2601C20.6996 21.6401 21.5996 20.76 22.2796 19.68C22.6396 19.12 22.9196 18.5 23.1195 17.88L23.3595 17.9199C23.3796 17.9199 23.3796 17.9 23.3995 17.9C23.4795 17.86 23.5396 17.8001 23.6596 17.8001H23.6996C24.0196 17.84 24.3595 17.9599 24.7396 18.1H24.7596C24.8196 18.12 24.8795 18.16 24.9396 18.1799C25.0596 18.24 25.1596 18.28 25.2996 18.32C25.3395 18.32 25.3795 18.34 25.4196 18.34C25.4396 18.34 25.4595 18.34 25.4795 18.36C25.5396 18.38 25.5796 18.38 25.6396 18.38C25.9396 18.38 26.1996 18.1801 26.2796 17.9201C26.2796 17.6801 26.0596 17.36 25.6996 17.2601V17.26ZM16.4395 16.28L15.5595 16.7L14.6795 16.28L14.4596 15.34L15.0595 14.5801H16.0395L16.6396 15.34L16.4396 16.28H16.4395ZM21.6596 14.2001C21.8148 14.8614 21.862 15.5435 21.7996 16.2199L18.7396 15.34C18.4596 15.2601 18.2996 14.98 18.3596 14.7001C18.3796 14.62 18.4196 14.54 18.4796 14.48L20.8996 12.3C21.2395 12.86 21.4995 13.5001 21.6596 14.2001ZM19.9396 11.1001L17.3196 12.9601C17.0996 13.1 16.7995 13.06 16.6196 12.8401C16.5596 12.78 16.5397 12.7 16.5196 12.62L16.3396 9.35995C17.7017 9.51679 18.9706 10.1301 19.9396 11.1001ZM14.1396 9.45985C14.3596 9.41989 14.5595 9.37993 14.7796 9.33997L14.5996 12.5399C14.5796 12.8198 14.3596 13.0598 14.0595 13.0598C13.9796 13.0598 13.8796 13.0399 13.8195 12.9999L11.1596 11.1001C11.9796 10.28 12.9996 9.71984 14.1396 9.45985ZM10.1996 12.2999L12.5795 14.4198C12.7996 14.5999 12.8195 14.9398 12.6396 15.1599C12.5795 15.2398 12.4996 15.2998 12.3996 15.3199L9.29959 16.2199C9.17958 14.8599 9.47953 13.4799 10.1996 12.2999ZM9.65948 17.7199L12.8396 17.1798C13.0996 17.1598 13.3396 17.3399 13.3996 17.5999C13.4196 17.7198 13.4196 17.8199 13.3796 17.9199L12.1596 20.8599C11.0396 20.1398 10.1395 19.0398 9.65948 17.7199ZM16.9596 21.6999C16.4996 21.7999 16.0395 21.8598 15.5595 21.8598C14.8596 21.8598 14.1795 21.74 13.5397 21.5399L15.1196 18.6799C15.2796 18.4999 15.5395 18.4199 15.7596 18.5399C15.853 18.5971 15.9344 18.6718 15.9996 18.7598L17.5395 21.5399C17.3596 21.5999 17.1595 21.6399 16.9595 21.6999H16.9596ZM20.8596 18.9199C20.3596 19.7199 19.6995 20.3599 18.9396 20.8599L17.6796 17.8398C17.6196 17.5999 17.7196 17.3399 17.9596 17.2198C18.0395 17.1798 18.1396 17.1598 18.2396 17.1598L21.4396 17.6999C21.3196 18.1398 21.1195 18.5399 20.8596 18.9199Z" fill="white"/>
</g>
<defs>
<clipPath id="clip0_316_4976">
<rect width="31" height="30.1523" fill="white"/>
</clipPath>
</defs>
</svg>
