<svg width="32" height="48" viewBox="0 0 32 48" fill="none" xmlns="http://www.w3.org/2000/svg">
<g clip-path="url(#clip0_316_4985)">
<path d="M8.25 47.25C12.528 47.25 16 43.778 16 39.5V31.75H8.25C3.972 31.75 0.5 35.222 0.5 39.5C0.5 43.778 3.972 47.25 8.25 47.25Z" fill="#0ACF83"/>
<path d="M0.5 24C0.5 19.722 3.972 16.25 8.25 16.25H16V31.75H8.25C3.972 31.75 0.5 28.278 0.5 24Z" fill="#A259FF"/>
<path d="M0.5 8.5C0.5 4.222 3.972 0.75 8.25 0.75H16V16.25H8.25C3.972 16.25 0.5 12.778 0.5 8.5Z" fill="#F24E1E"/>
<path d="M16 0.75H23.75C28.028 0.75 31.5 4.222 31.5 8.5C31.5 12.778 28.028 16.25 23.75 16.25H16V0.75Z" fill="#FF7262"/>
<path d="M31.5 24C31.5 28.278 28.028 31.75 23.75 31.75C19.472 31.75 16 28.278 16 24C16 19.722 19.472 16.25 23.75 16.25C28.028 16.25 31.5 19.722 31.5 24Z" fill="#1ABCFE"/>
</g>
<defs>
<clipPath id="clip0_316_4985">
<rect width="31" height="46.5" fill="white" transform="translate(0.5 0.75)"/>
</clipPath>
</defs>
</svg>
