<svg width="31" height="28" viewBox="0 0 31 28" fill="none" xmlns="http://www.w3.org/2000/svg">
<g clip-path="url(#clip0_598_9021)">
<path d="M25.4882 8.9396C25.1583 8.82641 24.8256 8.72155 24.4904 8.62512C24.5467 8.39505 24.5985 8.16775 24.6445 7.94446C25.3999 4.27762 24.9061 1.32353 23.2194 0.350909C21.6022 -0.581513 18.9573 0.390748 16.2863 2.71539C16.023 2.9449 15.7656 3.18103 15.5143 3.42354C15.346 3.26228 15.1748 3.10414 15.0007 2.94922C12.2013 0.463647 9.3953 -0.583935 7.7104 0.391475C6.09465 1.3268 5.61621 4.10385 6.29627 7.579C6.36393 7.92317 6.44032 8.26557 6.52538 8.60587C6.12819 8.71873 5.74493 8.83885 5.37814 8.96673C2.09601 10.1111 0 11.9043 0 13.7645C0 15.6856 2.25016 17.6126 5.66864 18.781C5.94578 18.8754 6.22523 18.9628 6.50673 19.0432C6.41531 19.4097 6.33414 19.7787 6.26333 20.1497C5.615 23.5646 6.12129 26.276 7.73268 27.2054C9.397 28.1652 12.1904 27.1787 14.9103 24.8011C15.1308 24.6078 15.3465 24.409 15.5572 24.2049C15.8293 24.4675 16.1088 24.7225 16.3951 24.9695C19.0299 27.2366 21.6319 28.1521 23.2418 27.2202C24.9045 26.2576 25.4449 23.3448 24.7433 19.801C24.6881 19.5234 24.6261 19.2471 24.5574 18.9725C24.7536 18.9143 24.9462 18.8545 25.1339 18.7923C28.6877 17.6149 31 15.7113 31 13.7645C31 11.8976 28.8363 10.0922 25.4882 8.9396ZM24.7174 17.5353C24.5479 17.5914 24.374 17.6455 24.1967 17.6982C23.8044 16.4561 23.2749 15.1355 22.627 13.7709C23.2453 12.4389 23.7544 11.135 24.1357 9.90109C24.4528 9.99288 24.7605 10.0896 25.0572 10.1917C27.9259 11.1794 29.6757 12.6394 29.6757 13.7645C29.6757 14.9628 27.7859 16.5185 24.7174 17.5353ZM23.4442 20.0582C23.7545 21.6251 23.7987 23.0419 23.5932 24.1496C23.4086 25.1449 23.0374 25.8083 22.5782 26.0741C21.6013 26.6396 19.5121 25.9046 17.2589 23.9656C16.9925 23.736 16.7326 23.4989 16.4794 23.2548C17.353 22.2995 18.2259 21.189 19.078 19.9555C20.5766 19.8225 21.9924 19.6051 23.2764 19.3083C23.3382 19.5569 23.3942 19.8069 23.4442 20.0582ZM10.5686 25.9764C9.61412 26.3134 8.85389 26.3231 8.39434 26.0581C7.41651 25.4942 7.01 23.3171 7.56448 20.3968C7.6304 20.0517 7.70587 19.7085 7.79081 19.3676C9.0606 19.6485 10.4661 19.8505 11.9683 19.9723C12.8261 21.1793 13.7243 22.2886 14.6295 23.26C14.4371 23.4462 14.2402 23.6275 14.0389 23.804C12.8361 24.8553 11.6308 25.6013 10.5686 25.9764ZM6.09707 17.5279C4.58546 17.0112 3.3371 16.3398 2.48145 15.607C1.71251 14.9486 1.3244 14.2949 1.3244 13.7645C1.3244 12.6356 3.00724 11.1958 5.81407 10.2173C6.15471 10.0986 6.51121 9.98658 6.88115 9.88147C7.26914 11.1433 7.77797 12.4626 8.39204 13.7967C7.76998 15.1505 7.25388 16.4909 6.86214 17.7676C6.60519 17.694 6.35009 17.6141 6.09707 17.5279ZM7.59597 7.32458C7.01339 4.34724 7.40028 2.10132 8.374 1.53763C9.41104 0.937245 11.7043 1.79326 14.1215 3.93952C14.2791 4.07979 14.4342 4.22291 14.5866 4.3688C13.6859 5.33598 12.796 6.43708 11.9458 7.63688C10.4878 7.77202 9.0922 7.98902 7.80909 8.27976C7.73004 7.96325 7.65898 7.64467 7.59597 7.32458ZM20.968 10.6266C20.6649 10.1031 20.3506 9.58616 20.0253 9.0762C21.0144 9.20129 21.962 9.36731 22.852 9.57026C22.5848 10.4266 22.2518 11.3219 21.8598 12.2398C21.5733 11.6962 21.276 11.1583 20.968 10.6266ZM15.5149 5.31527C16.1257 5.97705 16.7375 6.71584 17.3392 7.51748C16.1185 7.45983 14.8959 7.45959 13.6752 7.51675C14.2776 6.7225 14.8945 5.98467 15.5149 5.31527ZM10.0268 10.6356C9.72266 11.1631 9.43086 11.6976 9.15166 12.2387C8.7661 11.3241 8.43612 10.4247 8.16668 9.55621C9.05115 9.35835 9.99435 9.19657 10.9771 9.07378C10.6482 9.58685 10.3313 10.1077 10.0268 10.6356ZM11.0054 18.5494C9.98999 18.436 9.03263 18.2826 8.1484 18.0901C8.42207 17.2061 8.75932 16.2876 9.15323 15.3533C9.43355 15.8948 9.72655 16.4296 10.032 16.9573C10.3461 17.4998 10.6714 18.0312 11.0054 18.5494ZM15.5515 22.3069C14.9237 21.6297 14.2977 20.8805 13.6863 20.0748C14.2799 20.098 14.885 20.1099 15.5 20.1099C16.1319 20.1099 16.7565 20.0957 17.3713 20.0684C16.7676 20.8887 16.1581 21.639 15.5515 22.3069ZM21.8723 15.3056C22.2867 16.2502 22.6359 17.1638 22.9132 18.0327C22.0145 18.2378 21.044 18.403 20.0215 18.5256C20.3492 18.0062 20.6665 17.4803 20.9732 16.9483C21.2851 16.4075 21.5848 15.8598 21.8723 15.3056ZM19.8261 16.2866C19.3565 17.1023 18.8605 17.9026 18.3389 18.6861C17.3941 18.753 16.4472 18.7862 15.5 18.7857C14.5352 18.7857 13.5969 18.7557 12.6933 18.6971C12.1581 17.9154 11.6526 17.1138 11.178 16.2939C10.7057 15.4783 10.2646 14.6451 9.85546 13.7961C10.2635 12.9468 10.7034 12.1132 11.1742 11.2971L11.174 11.2972C11.6446 10.4808 12.146 9.68257 12.6772 8.90424C13.5991 8.83449 14.5444 8.79817 15.4999 8.79817C16.4597 8.79817 17.4064 8.83486 18.328 8.90509C18.8538 9.68225 19.352 10.4777 19.8217 11.29C20.294 12.1044 20.7397 12.9339 21.1581 13.7773C20.744 14.6293 20.2997 15.4662 19.8261 16.2866ZM22.5579 1.49815C23.596 2.09684 23.9997 4.51108 23.3475 7.67708C23.3058 7.87907 23.2591 8.0848 23.2082 8.29345C21.922 7.99653 20.5254 7.77577 19.0632 7.63857C18.2114 6.42558 17.3288 5.32278 16.4427 4.36807C16.6749 4.14423 16.9127 3.9262 17.1557 3.71417C19.4444 1.72254 21.5834 0.936155 22.5579 1.49815ZM15.5 10.9963C17.0288 10.9963 18.2682 12.2357 18.2682 13.7645C18.2682 15.2933 17.0288 16.5327 15.5 16.5327C13.9712 16.5327 12.7318 15.2933 12.7318 13.7645C12.7318 12.2357 13.9712 10.9963 15.5 10.9963Z" fill="#00D8FF"/>
</g>
<defs>
<clipPath id="clip0_598_9021">
<rect width="31" height="27.6094" fill="white"/>
</clipPath>
</defs>
</svg>
