<svg width="31" height="31" viewBox="0 0 31 31" fill="none" xmlns="http://www.w3.org/2000/svg">
<g clip-path="url(#clip0_316_4942)">
<path d="M18.2531 0C18.0289 0 17.8208 0.0480742 17.6286 0.112133C18.0369 0.38423 18.2611 0.744484 18.3731 1.15281C18.3812 1.20888 18.3972 1.24896 18.4052 1.30491C18.4132 1.35298 18.4211 1.40105 18.4211 1.44901C18.4532 2.15353 18.2371 2.24157 18.0849 2.65789C17.8527 3.19433 17.9168 3.77074 18.197 4.23501C18.221 4.29108 18.2531 4.35514 18.293 4.4112C17.9888 2.38567 19.6781 2.08148 19.9903 1.44901C20.0143 0.896699 19.558 0.528332 19.1977 0.272219C18.8534 0.0639375 18.5413 0 18.2531 0ZM20.7988 0.456281C20.7669 0.640465 20.7908 0.592391 20.7828 0.688539C20.7748 0.752598 20.7748 0.832641 20.7668 0.896699C20.7509 0.960637 20.7349 1.0247 20.7108 1.08875C20.6948 1.15293 20.6708 1.21687 20.6468 1.28093C20.6148 1.34499 20.5908 1.40105 20.5587 1.46499C20.5347 1.49708 20.5187 1.52917 20.4946 1.56114L20.4467 1.63319C20.4067 1.68926 20.3666 1.74532 20.3266 1.79328C20.2785 1.84135 20.2385 1.89742 20.1825 1.93738V1.94537C20.1344 1.98545 20.0864 2.03353 20.0304 2.07349C19.8623 2.20161 19.6701 2.29763 19.4939 2.41776C19.438 2.45772 19.3819 2.48981 19.3338 2.53788C19.2778 2.57784 19.2297 2.6178 19.1817 2.666C19.1257 2.71395 19.0857 2.76203 19.0376 2.81809C18.9977 2.86605 18.9496 2.92223 18.9175 2.97818C18.8775 3.03425 18.8376 3.09019 18.8055 3.14626C18.7734 3.21044 18.7494 3.26638 18.7173 3.33032C18.6934 3.3945 18.6694 3.45057 18.6534 3.5145C18.6293 3.58655 18.6133 3.65061 18.5973 3.71467C18.5893 3.74676 18.5893 3.78672 18.5814 3.81881C18.5732 3.85078 18.5732 3.88287 18.5654 3.91484C18.5654 3.9789 18.5573 4.05095 18.5573 4.11501C18.5573 4.16308 18.5573 4.21104 18.5654 4.25911C18.5654 4.32317 18.5734 4.38723 18.5893 4.45928C18.5973 4.52334 18.6133 4.58727 18.6293 4.65133C18.6534 4.71551 18.6694 4.77945 18.6935 4.84351C18.7093 4.88347 18.7334 4.92355 18.7494 4.95564L16.9082 4.24312C16.6006 4.15555 16.291 4.07544 15.9795 4.00287L15.4752 3.88287C14.9948 3.78672 14.5064 3.71467 14.0182 3.66672C14.0022 3.66672 13.9941 3.65861 13.9782 3.65861C13.502 3.61064 13.0237 3.5866 12.5451 3.58655C12.1928 3.58655 11.8405 3.60254 11.4964 3.62652C11.0079 3.65861 10.5197 3.72266 10.0312 3.80271C9.91116 3.81881 9.79103 3.84279 9.67103 3.86689C9.42279 3.91484 9.18266 3.97091 8.95052 4.02697L8.59015 4.123C8.47015 4.17107 8.35801 4.22714 8.246 4.27509L7.98177 4.39522C7.96579 4.40321 7.94968 4.40321 7.94181 4.4112C7.86165 4.45116 7.7896 4.48325 7.71755 4.52321C7.69826 4.52977 7.67951 4.53783 7.66148 4.54731C7.57345 4.58727 7.48541 4.63535 7.41336 4.67543C7.35729 4.69941 7.30123 4.73138 7.25327 4.75535C7.23004 4.77007 7.20598 4.78346 7.18122 4.79543C7.10917 4.83539 7.03712 4.87548 6.97294 4.91556C6.90671 4.95195 6.84259 4.99206 6.78089 5.03568C6.72482 5.07564 6.66887 5.10773 6.6208 5.1477C6.61281 5.15569 6.60482 5.15569 6.5967 5.16368C6.54875 5.19577 6.49268 5.23573 6.44461 5.27581L6.42863 5.2918L6.30862 5.38782C6.29252 5.39594 6.27653 5.41192 6.26055 5.41991C6.22059 5.45188 6.1805 5.49196 6.14042 5.52405C6.13243 5.53992 6.11645 5.54803 6.10845 5.55602C6.06038 5.6041 6.0123 5.64406 5.96435 5.69213C5.95624 5.69213 5.95624 5.70013 5.94837 5.70812C5.90029 5.74808 5.85222 5.79615 5.80427 5.84423C5.79615 5.85222 5.79615 5.86021 5.78816 5.86021C5.7482 5.90017 5.70824 5.94025 5.66816 5.98833C5.65217 6.00431 5.6282 6.0203 5.61209 6.03628C5.57213 6.08436 5.52406 6.13243 5.47598 6.18038C5.46799 6.19649 5.452 6.20448 5.44389 6.22046C5.37995 6.28452 5.32389 6.34858 5.25983 6.41264L5.23585 6.43662C5.10773 6.57273 4.97163 6.70884 4.82752 6.82896C4.68556 6.95564 4.5358 7.07329 4.37911 7.18122C4.22388 7.29008 4.06362 7.39159 3.89886 7.48541C3.73546 7.57502 3.56707 7.65519 3.3945 7.72554C3.2242 7.79791 3.05051 7.86204 2.87404 7.91772C2.53788 7.98977 2.19349 8.12588 1.89742 8.14985C1.83324 8.14985 1.76131 8.16584 1.69725 8.17383C1.63033 8.189 1.5636 8.20503 1.49708 8.2219L1.30491 8.29395C1.24085 8.31793 1.17691 8.35002 1.11285 8.38199C1.05679 8.42195 0.992727 8.45404 0.93666 8.49412C0.880594 8.53408 0.824648 8.58216 0.776574 8.63023C0.720508 8.67019 0.664441 8.72626 0.616488 8.77433C0.568414 8.8304 0.52034 8.87847 0.480379 8.93442C0.440418 8.99848 0.392344 9.05454 0.360254 9.11848C0.320293 9.17467 0.280211 9.23861 0.248121 9.30266C0.216152 9.37471 0.184184 9.43877 0.160086 9.51095C0.134834 9.57986 0.110813 9.64922 0.0880352 9.71898C0.0720508 9.78304 0.0560664 9.8471 0.0480742 9.91116C0.0480742 9.91915 0.0399609 9.92714 0.0399609 9.93514C0.0239766 10.0072 0.0239766 10.1033 0.0159844 10.1513C0.00799219 10.2074 0 10.2554 0 10.3114C0 10.3435 0 10.3834 0.00799219 10.4155C0.0159844 10.4716 0.0239766 10.5197 0.040082 10.5676C0.0560664 10.6157 0.0720508 10.6636 0.0961484 10.7117V10.7197C0.120125 10.7678 0.152094 10.8159 0.184184 10.8638C0.216152 10.9119 0.248242 10.96 0.288324 11.0079C0.328285 11.0479 0.376238 11.0961 0.424313 11.136C0.472387 11.1841 0.520461 11.2241 0.576406 11.2641C0.768582 11.4322 0.816656 11.4883 1.06478 11.6164C1.10474 11.6404 1.14482 11.6564 1.19289 11.6805C1.20089 11.6805 1.20888 11.6885 1.21687 11.6885C1.21687 11.7044 1.21687 11.7124 1.22498 11.7284C1.23298 11.7926 1.24896 11.8565 1.26495 11.9206C1.28093 11.9926 1.30491 12.0567 1.329 12.1128C1.35298 12.1608 1.36896 12.2088 1.39306 12.2569C1.40105 12.2729 1.40905 12.289 1.41704 12.2968C1.44913 12.361 1.48122 12.417 1.51319 12.473L1.63319 12.6411C1.67315 12.6892 1.72123 12.7452 1.7693 12.7933C1.81738 12.8413 1.86545 12.8813 1.92139 12.9293C1.92139 12.9293 1.92951 12.9374 1.93738 12.9374C1.98545 12.9774 2.03353 13.0173 2.08148 13.0494C2.13755 13.0894 2.19361 13.1215 2.25767 13.1536C2.31374 13.1855 2.3778 13.2176 2.44173 13.2416C2.48981 13.2656 2.54588 13.2816 2.60194 13.2977C2.60993 13.3057 2.61793 13.3057 2.63391 13.3137C2.666 13.3216 2.70596 13.3296 2.73805 13.3376C2.71395 13.7699 2.70596 14.1783 2.77002 14.3224C2.84207 14.4824 3.19433 13.9942 3.54659 13.4338C3.49864 13.9861 3.46667 14.6345 3.54659 14.8267C3.63463 15.0269 4.11501 14.4024 4.53133 13.7139C10.2075 12.401 15.3871 16.3238 15.9316 21.8638C15.8274 20.9992 14.7628 20.5189 14.2744 20.639C14.0342 21.2314 13.626 21.992 12.9695 22.4642C13.0254 21.9359 13.0015 21.3915 12.8893 20.8631C12.7133 21.5996 12.369 22.2882 11.8966 22.8805C11.1361 22.9366 10.3757 22.5684 9.97522 22.0159C9.94325 21.992 9.93526 21.9439 9.91128 21.9118C9.88718 21.8558 9.86321 21.7998 9.8471 21.7437C9.82379 21.69 9.80766 21.6335 9.79915 21.5756C9.79116 21.5196 9.79116 21.4635 9.79116 21.3994V21.2794C9.79915 21.2234 9.81513 21.1673 9.83112 21.1112C9.8471 21.0553 9.86321 20.9992 9.88718 20.9432C9.91927 20.8871 9.94325 20.831 9.98321 20.7751C10.1193 20.3907 10.1193 20.0786 9.8712 19.8944C9.82313 19.863 9.77221 19.8362 9.71911 19.8144C9.68702 19.8063 9.64705 19.7902 9.61497 19.7824C9.59099 19.7742 9.575 19.7663 9.55091 19.7583C9.49496 19.7423 9.43889 19.7263 9.38283 19.7183C9.3282 19.7025 9.27163 19.6944 9.21475 19.6942C9.15868 19.6862 9.09462 19.6782 9.03856 19.6782C8.9986 19.6782 8.95864 19.6862 8.91843 19.6862C8.8545 19.6862 8.79843 19.6943 8.74236 19.7103C8.6863 19.7183 8.63023 19.7263 8.57429 19.7423C8.51822 19.7583 8.46215 19.7744 8.40609 19.7983C8.35014 19.8223 8.30195 19.8464 8.246 19.8704C8.19793 19.8944 8.14997 19.9265 8.09391 19.9504C6.22858 21.1674 7.34131 24.0174 8.61425 24.842C8.13387 24.9301 7.6455 25.0342 7.50951 25.1382L7.49352 25.1542C7.83767 25.3625 8.19793 25.5386 8.57429 25.6906C9.08663 25.8587 9.63107 26.0108 9.8712 26.0749V26.0829C10.5345 26.2189 11.2127 26.2673 11.8886 26.227C15.4352 25.9787 18.3413 23.2809 18.8697 19.7263C18.8857 19.7983 18.9018 19.8624 18.9177 19.9345C18.9417 20.0786 18.9738 20.2306 18.9898 20.3827V20.3909C19.0058 20.4629 19.0138 20.535 19.0219 20.599V20.631C19.0299 20.703 19.0379 20.7751 19.0379 20.8391C19.0459 20.9272 19.0539 21.0152 19.0539 21.1034V21.2314C19.0539 21.2715 19.0618 21.3195 19.0618 21.3595C19.0618 21.4076 19.0539 21.4556 19.0539 21.5036V21.6157C19.0539 21.6718 19.0459 21.7199 19.0459 21.7758C19.0459 21.8079 19.0459 21.8399 19.0378 21.8799C19.0378 21.9359 19.0298 21.992 19.0298 22.056C19.0218 22.08 19.0218 22.1041 19.0218 22.1281C19.0138 22.1921 19.0058 22.2482 18.9977 22.3121C18.9977 22.3362 18.9977 22.3602 18.9897 22.3843C18.9817 22.4642 18.9657 22.5364 18.9577 22.6164V22.6324C18.9417 22.7045 18.9256 22.7846 18.9096 22.8567V22.8807L18.8616 23.0968C18.8616 23.1048 18.8536 23.1208 18.8536 23.1288C18.8376 23.2008 18.8216 23.2729 18.7975 23.3451V23.369C18.7735 23.4491 18.7495 23.5211 18.7336 23.5932C18.7255 23.6012 18.7255 23.6092 18.7255 23.6092L18.6534 23.8493C18.6214 23.9295 18.5975 24.0015 18.5654 24.0816C18.5334 24.1615 18.5093 24.2416 18.4773 24.3137C18.4452 24.3937 18.4132 24.4658 18.3813 24.5458H18.3732C18.3412 24.6179 18.3091 24.6979 18.269 24.77C18.2625 24.7893 18.2545 24.808 18.2451 24.826C18.2371 24.8341 18.2371 24.842 18.2291 24.8501C17.7087 25.8988 16.9402 26.8195 15.9795 27.54C15.9154 27.58 15.8514 27.6281 15.7874 27.6761C15.7714 27.6921 15.7474 27.7002 15.7313 27.7161C15.6752 27.7561 15.6193 27.7962 15.5552 27.8362L15.5792 27.8843H15.5872L15.9235 27.8362H15.9315C16.1397 27.8042 16.3478 27.7641 16.5559 27.7242C16.612 27.7162 16.6761 27.7002 16.732 27.6842C16.7721 27.6761 16.8041 27.6681 16.8441 27.6601C16.9002 27.6521 16.9563 27.6361 17.0122 27.628C17.0603 27.612 17.1084 27.604 17.1563 27.5881C17.957 27.3959 18.7336 27.1317 19.4781 26.8195C18.2051 28.5567 16.4999 29.9577 14.5064 30.8784C15.4271 30.8144 16.3478 30.6623 17.2365 30.4062C20.4628 29.4534 23.1767 27.2839 24.8019 24.3618C24.472 26.2154 23.7366 27.9732 22.6483 29.5095C23.4242 28.9977 24.141 28.4016 24.7858 27.7322C26.5792 25.8588 27.756 23.481 28.1564 20.9272C28.4294 22.1942 28.5077 23.4955 28.3885 24.7861C34.1687 16.7241 28.8689 8.36613 26.6513 6.16452C26.6432 6.14854 26.6353 6.14054 26.6353 6.12456C26.6272 6.13255 26.6272 6.13255 26.6272 6.14054C26.6272 6.13243 26.6272 6.13243 26.6192 6.12456C26.6192 6.22059 26.6112 6.31661 26.6032 6.41276C26.5792 6.59682 26.5551 6.77302 26.5232 6.94921C26.4832 7.12528 26.4351 7.30135 26.3871 7.47754C26.33 7.65084 26.2659 7.82173 26.1949 7.98977C26.1213 8.1557 26.0412 8.31866 25.9548 8.47826C25.8667 8.63035 25.7707 8.79044 25.6665 8.93454C25.5636 9.08343 25.4541 9.22767 25.3384 9.36684C25.2181 9.51095 25.0901 9.63906 24.962 9.76718C24.8866 9.83615 24.8092 9.90286 24.7299 9.96723C24.6657 10.0233 24.6098 10.0714 24.5457 10.1274C24.4016 10.2394 24.2575 10.3436 24.0974 10.4396C23.9453 10.5356 23.7851 10.6318 23.6251 10.7118C23.4568 10.7919 23.2887 10.8639 23.1207 10.936C22.95 11.0004 22.7764 11.0565 22.6003 11.1041C22.4233 11.1517 22.2443 11.1918 22.0639 11.2242C21.8798 11.2563 21.6958 11.2723 21.5196 11.2882C21.3915 11.2962 21.2633 11.3042 21.1352 11.3042C20.9512 11.3042 20.767 11.2882 20.5909 11.2723C20.4067 11.2561 20.2225 11.2322 20.0465 11.1921C19.8624 11.1601 19.6862 11.1122 19.51 11.0561H19.502C19.6782 11.04 19.8544 11.024 20.0305 10.9919C20.2111 10.9604 20.3901 10.9204 20.5669 10.8719C20.7429 10.8243 20.9166 10.7682 21.0871 10.7038C21.2633 10.6397 21.4314 10.5597 21.5916 10.4796C21.7597 10.3997 21.9118 10.3115 22.0719 10.2155C22.224 10.1113 22.3762 10.0072 22.5203 9.89517C22.6637 9.78368 22.8 9.66336 22.9285 9.53492C23.0646 9.4148 23.1847 9.27881 23.3049 9.14258C23.4219 9.0024 23.534 8.85821 23.641 8.71027C23.657 8.6863 23.6731 8.65433 23.6891 8.63035C23.7691 8.50223 23.8492 8.37412 23.9212 8.246C24.0093 8.08726 24.0895 7.92427 24.1615 7.75763C24.2338 7.59011 24.2979 7.41917 24.3535 7.2454C24.4096 7.07708 24.4497 6.90101 24.4896 6.72494C24.5217 6.54088 24.5538 6.36469 24.5697 6.1885C24.5857 6.00443 24.6018 5.82037 24.6018 5.64418C24.6018 5.51606 24.5938 5.38795 24.5858 5.25983C24.5698 5.07577 24.5458 4.89957 24.5216 4.72338C24.4901 4.54282 24.4501 4.36384 24.4017 4.18706C24.3455 4.01898 24.2896 3.84279 24.2255 3.67471C24.1614 3.50663 24.0814 3.33843 24.0014 3.17835C23.9132 3.01826 23.8252 2.85805 23.7292 2.70608C23.627 2.55602 23.5201 2.40915 23.4089 2.26566C23.2883 2.12757 23.1656 1.99144 23.0406 1.85734C22.9732 1.78867 22.9038 1.72196 22.8325 1.65729C22.4738 1.37872 22.1025 1.11688 21.7196 0.872602C21.6679 0.84278 21.6144 0.816091 21.5595 0.79268C21.2954 0.62448 21.0473 0.536445 20.7991 0.456402L20.7988 0.456281Z" fill="#E0234E"/>
</g>
<defs>
<clipPath id="clip0_316_4942">
<rect width="31" height="30.8789" fill="white"/>
</clipPath>
</defs>
</svg>
