<svg width="28" height="28" viewBox="0 0 28 28" fill="none" xmlns="http://www.w3.org/2000/svg">
<g clip-path="url(#clip0_316_4888)">
<path d="M23.0216 9.06608C22.7236 8.95129 22.4231 8.84495 22.1203 8.74715C22.1712 8.51382 22.218 8.28331 22.2596 8.05686C22.9418 4.33814 22.4958 1.34226 20.9723 0.355873C19.5116 -0.589741 17.1228 0.396277 14.7102 2.7538C14.4724 2.98656 14.2399 3.22603 14.0129 3.47198C13.8609 3.30843 13.7063 3.14806 13.549 2.99094C11.0205 0.470207 8.48608 -0.592197 6.96423 0.397014C5.50484 1.34558 5.0727 4.16191 5.68695 7.68622C5.74806 8.03527 5.81707 8.38252 5.89389 8.72763C5.53514 8.84208 5.18897 8.96391 4.85767 9.09359C1.89317 10.2541 0 12.0728 0 13.9592C0 15.9075 2.03241 17.8618 5.12006 19.0467C5.37038 19.1424 5.62279 19.2311 5.87705 19.3126C5.79447 19.6843 5.72116 20.0585 5.6572 20.4348C5.07161 23.898 5.52891 26.6478 6.98436 27.5903C8.48761 28.5637 11.0107 27.5633 13.4673 25.152C13.6666 24.9559 13.8614 24.7543 14.0516 24.5474C14.2975 24.8137 14.5498 25.0723 14.8085 25.3228C17.1883 27.622 19.5385 28.5504 20.9926 27.6053C22.4944 26.6291 22.9825 23.6751 22.3488 20.0811C22.2989 19.7996 22.2429 19.5194 22.1809 19.2409C22.3581 19.1819 22.532 19.1213 22.7015 19.0582C25.9115 17.8641 28 15.9336 28 13.9592C28 12.0659 26.0457 10.235 23.0216 9.06608ZM22.3254 17.7834C22.1723 17.8403 22.0152 17.8952 21.8551 17.9486C21.5007 16.689 21.0225 15.3496 20.4373 13.9657C20.9957 12.6148 21.4555 11.2926 21.8 10.0412C22.0864 10.1343 22.3643 10.2324 22.6323 10.3359C25.2234 11.3375 26.8039 12.8182 26.8039 13.9592C26.8039 15.1745 25.097 16.7522 22.3254 17.7834ZM21.1754 20.342C21.4557 21.9311 21.4956 23.3679 21.31 24.4913C21.1433 25.5006 20.8079 26.1735 20.3932 26.443C19.5109 27.0165 17.6238 26.2711 15.5887 24.3047C15.3481 24.0718 15.1133 23.8314 14.8846 23.5838C15.6737 22.615 16.4621 21.4888 17.2317 20.2378C18.5853 20.103 19.8641 19.8824 21.0238 19.5814C21.0797 19.8336 21.1303 20.0872 21.1754 20.342ZM9.54581 26.3439C8.68372 26.6857 7.99706 26.6955 7.58198 26.4268C6.69878 25.8549 6.33161 23.647 6.83244 20.6853C6.89197 20.3354 6.96014 19.9873 7.03686 19.6416C8.18377 19.9265 9.45328 20.1314 10.8101 20.2549C11.5849 21.4789 12.3961 22.604 13.2137 23.5891C13.04 23.7779 12.8621 23.9618 12.6803 24.1408C11.5939 25.207 10.5052 25.9635 9.54581 26.3439ZM5.50703 17.7759C4.1417 17.2519 3.01416 16.5709 2.24131 15.8278C1.54678 15.1601 1.19623 14.4971 1.19623 13.9592C1.19623 12.8144 2.71622 11.3542 5.25142 10.3618C5.55909 10.2415 5.88109 10.1279 6.21523 10.0213C6.56567 11.3009 7.02527 12.6389 7.57991 13.9919C7.01805 15.3649 6.55189 16.7242 6.19806 18.019C5.96598 17.9443 5.73557 17.8633 5.50703 17.7759ZM6.86088 7.42821C6.33467 4.40875 6.68412 2.13105 7.56361 1.55938C8.5003 0.950505 10.5716 1.81863 12.7549 3.99526C12.8972 4.13752 13.0373 4.28266 13.175 4.43061C12.3615 5.41147 11.5577 6.52815 10.7897 7.74493C9.47286 7.88198 8.21231 8.10205 7.05337 8.39691C6.98197 8.07592 6.91778 7.75283 6.86088 7.42821ZM18.9388 10.7769C18.6651 10.246 18.3812 9.72178 18.0873 9.20461C18.9807 9.33147 19.8367 9.49984 20.6405 9.70566C20.3992 10.5742 20.0984 11.4821 19.7444 12.4129C19.4856 11.8616 19.217 11.3162 18.9388 10.7769ZM14.0135 5.39047C14.5651 6.06161 15.1177 6.81086 15.6612 7.62384C14.5587 7.56538 13.4543 7.56513 12.3518 7.6231C12.8959 6.81761 13.4531 6.06935 14.0135 5.39047ZM9.05647 10.7861C8.78176 11.321 8.5182 11.8631 8.26602 12.4118C7.91777 11.4843 7.61972 10.5722 7.37636 9.69142C8.17523 9.49075 9.02716 9.32668 9.91484 9.20215C9.61772 9.72248 9.33151 10.2507 9.05647 10.7861ZM9.94033 18.8118C9.02322 18.6969 8.1585 18.5413 7.35984 18.346C7.60703 17.4495 7.91164 16.518 8.26744 15.5706C8.52062 16.1197 8.78527 16.6621 9.06117 17.1973C9.34489 17.7474 9.63867 18.2863 9.94033 18.8118ZM14.0465 22.6225C13.4795 21.9358 12.914 21.176 12.3618 20.3588C12.8979 20.3824 13.4445 20.3944 14 20.3944C14.5707 20.3944 15.1349 20.38 15.6902 20.3523C15.1449 21.1842 14.5945 21.9451 14.0465 22.6225ZM19.7556 15.5222C20.1299 16.4801 20.4454 17.4066 20.6958 18.2878C19.884 18.4958 19.0075 18.6633 18.084 18.7877C18.3799 18.261 18.6665 17.7276 18.9435 17.1881C19.2252 16.6396 19.496 16.0842 19.7556 15.5222ZM17.9074 16.517C17.4833 17.3443 17.0353 18.1559 16.5642 18.9505C15.7108 19.0183 14.8555 19.052 14 19.0515C13.1286 19.0515 12.2811 19.0211 11.4649 18.9616C10.9815 18.1689 10.525 17.3559 10.0963 16.5244C9.66965 15.6973 9.27123 14.8523 8.9017 13.9913C9.27029 13.13 9.6676 12.2846 10.0928 11.4569L10.0927 11.457C10.5177 10.6291 10.9706 9.81956 11.4504 9.03022C12.283 8.95949 13.1369 8.92264 13.9999 8.92264C14.8668 8.92264 15.7219 8.95986 16.5543 9.03108C17.0293 9.81924 17.4792 10.626 17.9035 11.4498C18.3301 12.2757 18.7327 13.1169 19.1105 13.9722C18.7365 14.8363 18.3352 15.6851 17.9074 16.517ZM20.3749 1.51935C21.3125 2.1265 21.6771 4.57491 21.088 7.7857C21.0504 7.99054 21.0082 8.19919 20.9623 8.41079C19.8005 8.10966 18.5391 7.88579 17.2184 7.74665C16.449 6.51649 15.6518 5.39808 14.8515 4.42987C15.0612 4.20287 15.276 3.98175 15.4955 3.76672C17.5627 1.74691 19.4947 0.9494 20.3749 1.51935ZM14 11.1518C15.3809 11.1518 16.5003 12.4088 16.5003 13.9592C16.5003 15.5096 15.3809 16.7666 14 16.7666C12.6191 16.7666 11.4997 15.5096 11.4997 13.9592C11.4997 12.4088 12.6191 11.1518 14 11.1518Z" fill="#00D8FF"/>
</g>
<defs>
<clipPath id="clip0_316_4888">
<rect width="28" height="28" fill="white"/>
</clipPath>
</defs>
</svg>
