<svg width="31" height="25" viewBox="0 0 31 25" fill="none" xmlns="http://www.w3.org/2000/svg">
<g clip-path="url(#clip0_598_8999)">
<path d="M4.77821 17.085L3.15652 17.6774L3.06934 22.5018L8.68324 20.451C6.75785 19.8044 5.35171 18.6663 4.77821 17.085Z" fill="#FDBD39"/>
<path d="M5.62686 11.9822L0 14.0377L3.15643 17.6773L4.77812 17.0849C4.20631 15.5082 4.55894 13.7258 5.62686 11.9822Z" fill="#F69833"/>
<path d="M15.0957 5.02071C7.9305 7.63828 3.31114 13.0395 4.77807 17.0849L30.7257 7.60582C29.2587 3.56044 22.261 2.40303 15.0957 5.02047" fill="#FECF33"/>
<path d="M20.4084 19.6703C27.5735 17.0527 32.2017 11.6753 30.7259 7.60608L4.77832 17.0851C6.25397 21.1543 13.2431 22.2877 20.4084 19.6703Z" fill="#EE6723"/>
<path d="M30.7259 7.60596L4.77832 17.0852C5.28643 18.4862 7.22393 19.1765 9.94261 19.1765C12.593 19.1765 15.9858 18.521 19.5229 17.2288C26.6882 14.6112 31.7294 10.3732 30.7259 7.6062" fill="#F69833"/>
<path d="M25.5616 5.51465C22.9111 5.51465 19.5183 6.17025 15.9811 7.46232C8.81601 10.0799 3.77475 14.3179 4.77813 17.085L30.7257 7.60594C30.2178 6.20488 28.2801 5.51465 25.5616 5.51465Z" fill="#FDBD39"/>
<path d="M24.1285 22.7573H24.1282C23.3648 22.7573 22.2385 22.0677 20.7807 20.7077C19.0558 19.0987 17.0801 16.7421 15.2174 14.0719C13.3546 11.4018 11.824 8.73239 10.9074 6.55537C9.90878 4.18278 9.76637 2.72396 10.4842 2.21948C10.6416 2.10892 10.8314 2.05298 11.048 2.05298C11.6319 2.05298 12.7696 2.4877 14.8734 4.55877L14.9194 4.60406L14.9131 4.66836C14.8987 4.81699 14.8856 4.96574 14.8736 5.11459L14.8503 5.40715L14.6438 5.19924C12.3772 2.91565 11.3793 2.6691 11.0555 2.6691C10.9631 2.6691 10.8896 2.68787 10.837 2.72493C10.5255 2.94374 10.5055 4.01518 11.4737 6.31511C12.3739 8.45339 13.8822 11.0826 15.7209 13.7179C17.5597 16.3537 19.5051 18.6755 21.1992 20.2558C23.0258 21.9597 23.849 22.1436 24.118 22.1436C24.2109 22.1436 24.2865 22.1238 24.3424 22.0843C24.671 21.8536 24.6713 20.7058 23.5916 18.2303L23.542 18.1167L23.6506 18.0573C23.7591 17.9979 23.8641 17.9394 23.9624 17.8834L24.0925 17.8096L24.1523 17.9468C24.9179 19.7008 25.6335 21.9302 24.6952 22.5899C24.537 22.7009 24.3464 22.7573 24.1285 22.7573ZM24.1282 22.4867H24.1285L24.1283 22.622L24.1282 22.4867Z" fill="#EE6723"/>
<path d="M20.5822 19.5962L20.5713 19.731C20.3901 21.9725 19.9132 24.6673 18.6695 24.7763C18.6446 24.7786 18.6187 24.7797 18.5926 24.7797C17.7479 24.7797 16.9485 23.5692 16.2171 21.182C15.525 18.9234 14.988 15.891 14.7049 12.6433C14.4218 9.39615 14.426 6.31613 14.7168 3.97079C15.0339 1.41498 15.6372 0.0801641 16.5102 0.00363281C16.5361 0.00121094 16.5629 0 16.5893 0C17.2021 0 18.1258 0.693867 19.0713 3.92634L18.454 4.0455C18.1383 2.96534 17.7941 2.08681 17.4525 1.48316C17.1366 0.924793 16.8294 0.617336 16.5876 0.617336C16.5796 0.617336 16.5716 0.617578 16.5637 0.618184C16.1853 0.651484 15.6342 1.56937 15.3269 4.04695C15.0413 6.3504 15.0378 9.38416 15.3172 12.5895C15.5968 15.7953 16.125 18.7825 16.8047 21.0007C17.109 21.994 17.4428 22.8127 17.7702 23.3683C18.0719 23.8805 18.364 24.1627 18.5924 24.1627C18.6004 24.1627 18.6081 24.1623 18.616 24.1617C18.9781 24.13 19.6604 23.1748 19.9475 19.814L20.5822 19.5962Z" fill="#EE6723"/>
</g>
<defs>
<clipPath id="clip0_598_8999">
<rect width="31" height="24.8242" fill="white"/>
</clipPath>
</defs>
</svg>
