<svg width="31" height="31" viewBox="0 0 31 31" fill="none" xmlns="http://www.w3.org/2000/svg">
<g clip-path="url(#clip0_316_4967)">
<path d="M6.89049 0H24.0616C24.8971 0 25.7085 0.133203 26.4956 0.411719C27.6338 0.823438 28.6631 1.55 29.4381 2.49453C30.2253 3.43906 30.746 4.60156 30.9276 5.8125C31.0003 6.26055 31.0124 6.70859 31.0124 7.15664V23.9039C31.0124 24.4367 30.9881 24.9816 30.8792 25.5023C30.637 26.7012 30.0678 27.8273 29.2444 28.7355C28.4331 29.6438 27.3674 30.3219 26.2171 30.6852C25.5147 30.9031 24.7881 31 24.0495 31C23.7225 31 6.84205 31 6.58776 30.9879C5.3526 30.9273 4.12955 30.5277 3.10026 29.8375C2.09518 29.1594 1.27174 28.2148 0.738927 27.125C0.278771 26.1926 0.0486929 25.1512 0.0486929 24.1098V6.89023C0.0244742 5.86094 0.242443 4.84375 0.69049 3.92344C1.21119 2.83359 2.02252 1.87695 3.0276 1.19883C4.0569 0.496484 5.26783 0.0847656 6.50299 0.0242188C6.62408 0 6.75729 0 6.89049 0Z" fill="url(#paint0_linear_316_4967)"/>
<path d="M26.1562 25.357C26.0473 25.1875 25.9262 25.018 25.793 24.8605C25.4902 24.4973 25.1391 24.1824 24.7516 23.916C24.2672 23.5891 23.698 23.3832 23.1168 23.359C22.7051 23.3348 22.2934 23.4074 21.9059 23.5527C21.5184 23.6859 21.143 23.8797 20.7797 24.0734C20.3559 24.2914 19.932 24.5094 19.484 24.691C18.9512 24.909 18.3941 25.0785 17.825 25.1996C17.1105 25.3328 16.384 25.3813 15.6695 25.3691C14.3738 25.3449 13.0781 25.1512 11.843 24.7879C10.7531 24.4609 9.71172 24.0129 8.73086 23.4438C7.87109 22.9473 7.07188 22.3781 6.32109 21.7363C5.70352 21.2035 5.13438 20.6344 4.60156 20.0289C4.23828 19.6051 3.88711 19.157 3.56016 18.6969C3.42695 18.5152 3.30586 18.3215 3.19687 18.1277L0 14.6766V6.86602C0 3.07578 3.06367 0 6.85391 0H12.9691L17.498 4.60156C27.7184 11.5523 24.4125 19.2176 24.4125 19.2176C24.4125 19.2176 27.3188 22.4871 26.1562 25.357Z" fill="url(#paint1_linear_316_4967)"/>
<path d="M17.5227 4.60156C27.743 11.5523 24.4371 19.2176 24.4371 19.2176C24.4371 19.2176 27.3434 22.4992 26.1688 25.3691C26.1688 25.3691 24.9699 23.359 22.9598 23.359C21.0223 23.359 19.884 25.3691 15.9848 25.3691C7.30234 25.3691 3.19727 18.1156 3.19727 18.1156C11.0199 23.2621 16.3602 19.6172 16.3602 19.6172C12.8363 17.5707 5.34062 7.78633 5.34062 7.78633C11.8676 13.3445 14.6891 14.8098 14.6891 14.8098C13.0059 13.4172 8.2832 6.61172 8.2832 6.61172C12.0613 10.4383 19.5691 15.7785 19.5691 15.7785C21.7004 9.86914 17.5227 4.60156 17.5227 4.60156Z" fill="white"/>
</g>
<defs>
<linearGradient id="paint0_linear_316_4967" x1="18.4417" y1="-1.10619" x2="12.5848" y2="32.1099" gradientUnits="userSpaceOnUse">
<stop stop-color="#FAAE42"/>
<stop offset="1" stop-color="#EF3E31"/>
</linearGradient>
<linearGradient id="paint1_linear_316_4967" x1="15.8163" y1="0.500844" x2="11.5297" y2="24.8113" gradientUnits="userSpaceOnUse">
<stop stop-color="#E39F3A"/>
<stop offset="1" stop-color="#D33929"/>
</linearGradient>
<clipPath id="clip0_316_4967">
<rect width="31" height="31" fill="white"/>
</clipPath>
</defs>
</svg>
