<svg width="31" height="35" viewBox="0 0 31 35" fill="none" xmlns="http://www.w3.org/2000/svg">
<g clip-path="url(#clip0_316_4949)">
<path fill-rule="evenodd" clip-rule="evenodd" d="M18.476 3.99161L25.6382 8.12697C25.845 7.90818 26.0823 7.7204 26.3428 7.56945C27.8281 6.7155 29.7227 7.22252 30.5855 8.70797C31.4395 10.1934 30.9325 12.0879 29.447 12.9507C29.1885 13.0996 28.9099 13.2105 28.6198 13.2801V21.5538C28.9067 21.6235 29.1823 21.7337 29.4382 21.881C30.9325 22.7438 31.4395 24.6385 30.5767 26.1239C29.7227 27.6093 27.8193 28.1163 26.3338 27.2624C26.046 27.0973 25.7868 26.8869 25.5661 26.6392L18.4475 30.7491C18.5517 31.0648 18.6047 31.3951 18.6043 31.7275C18.6043 33.4353 17.2168 34.8319 15.5 34.8319C13.7833 34.8319 12.3958 33.4442 12.3958 31.7275C12.3958 31.4224 12.4396 31.1276 12.5214 30.8492L5.36109 26.7151C5.15659 26.9295 4.92263 27.1138 4.66626 27.2624C3.17196 28.1163 1.27733 27.6093 0.423375 26.1239C-0.430457 24.6385 0.0765625 22.7438 1.5619 21.881C1.81778 21.7337 2.09332 21.6235 2.38025 21.5537V13.2801C2.09016 13.2105 1.81158 13.0996 1.55306 12.9507C0.0676016 12.0969 -0.439418 10.1934 0.414535 8.70797C1.26849 7.22252 3.17184 6.7155 4.6573 7.56945C4.91633 7.7196 5.15245 7.90617 5.35843 8.12345L12.5227 3.98701C12.4382 3.70037 12.3955 3.40306 12.3958 3.10424C12.3958 1.38773 13.7833 0 15.5 0C17.2168 0 18.6043 1.38761 18.6043 3.10424C18.6043 3.41279 18.5595 3.71056 18.476 3.99161ZM17.7299 5.26576L24.9091 9.4108C24.7948 9.81042 24.762 10.2289 24.8127 10.6415C24.8634 11.054 24.9966 11.4522 25.2042 11.8122C25.6413 12.5724 26.3532 13.0764 27.1433 13.2728V21.5569C27.103 21.5667 27.0629 21.5775 27.0231 21.5888L17.6464 5.34871C17.6748 5.32159 17.7026 5.29386 17.7299 5.26576ZM13.3556 5.35053L3.97905 21.5904C3.93851 21.5787 3.89773 21.5678 3.85675 21.5577V13.2728C4.64688 13.0764 5.35879 12.5724 5.79582 11.8122C6.00391 11.4515 6.13718 11.0525 6.18767 10.6391C6.23817 10.2257 6.20485 9.80642 6.08972 9.4062L13.2669 5.26237C13.2959 5.29228 13.3254 5.32171 13.3556 5.35041V5.35053ZM16.3674 6.08617L25.7418 22.3224C25.527 22.5273 25.343 22.7621 25.1953 23.0196C25.0479 23.2754 24.9378 23.551 24.8681 23.8379H6.13222C6.06244 23.551 5.95219 23.2754 5.80478 23.0196C5.65656 22.7639 5.47285 22.5305 5.25913 22.3264L14.6353 6.0869C14.9164 6.16784 15.2075 6.20877 15.5 6.20848C15.8012 6.20848 16.0922 6.16585 16.3674 6.08617ZM17.7957 29.6362L24.9284 25.5181C24.907 25.4509 24.8879 25.3829 24.8711 25.3144H6.12822C6.11828 25.3547 6.10754 25.3947 6.09601 25.4345L13.2636 29.5729C13.553 29.2719 13.9003 29.0326 14.2847 28.8695C14.6691 28.7063 15.0825 28.6225 15.5 28.6233C15.9322 28.6225 16.3597 28.7123 16.7551 28.8867C17.1505 29.0612 17.505 29.3165 17.7957 29.6362Z" fill="#E535AB"/>
</g>
<defs>
<clipPath id="clip0_316_4949">
<rect width="31" height="34.875" fill="white"/>
</clipPath>
</defs>
</svg>
