<svg width="32" height="31" viewBox="0 0 32 31" fill="none" xmlns="http://www.w3.org/2000/svg">
<path d="M6.89 0H24.0611C24.8966 0 25.708 0.133203 26.4951 0.411719C27.6334 0.823438 28.6627 1.55 29.4377 2.49453C30.2248 3.43906 30.7455 4.60156 30.9271 5.8125C30.9998 6.26055 31.0119 6.70859 31.0119 7.15664V23.9039C31.0119 24.4367 30.9877 24.9816 30.8787 25.5023C30.6365 26.7012 30.0673 27.8273 29.2439 28.7355C28.4326 29.6438 27.367 30.3219 26.2166 30.6852C25.5142 30.9031 24.7877 31 24.049 31C23.722 31 6.84156 31 6.58727 30.9879C5.35211 30.9273 4.12906 30.5277 3.09977 29.8375C2.09469 29.1594 1.27125 28.2148 0.738439 27.125C0.278283 26.1926 0.0482046 25.1512 0.0482046 24.1098V6.89023C0.0239859 5.86094 0.241955 4.84375 0.690001 3.92344C1.2107 2.83359 2.02203 1.87695 3.02711 1.19883C4.05641 0.496484 5.26735 0.0847656 6.5025 0.0242188C6.6236 0 6.7568 0 6.89 0Z" fill="url(#paint0_linear_598_8975)"/>
<path d="M26.1562 25.357C26.0473 25.1875 25.9262 25.018 25.793 24.8605C25.4902 24.4973 25.1391 24.1824 24.7516 23.916C24.2672 23.5891 23.698 23.3832 23.1168 23.359C22.7051 23.3348 22.2934 23.4074 21.9059 23.5527C21.5184 23.6859 21.143 23.8797 20.7797 24.0734C20.3559 24.2914 19.932 24.5094 19.484 24.691C18.9512 24.909 18.3941 25.0785 17.825 25.1996C17.1105 25.3328 16.384 25.3813 15.6695 25.3691C14.3738 25.3449 13.0781 25.1512 11.843 24.7879C10.7531 24.4609 9.71172 24.0129 8.73086 23.4438C7.87109 22.9473 7.07188 22.3781 6.32109 21.7363C5.70352 21.2035 5.13438 20.6344 4.60156 20.0289C4.23828 19.6051 3.88711 19.157 3.56016 18.6969C3.42695 18.5152 3.30586 18.3215 3.19687 18.1277L0 14.6766V6.86602C0 3.07578 3.06367 0 6.85391 0H12.9691L17.498 4.60156C27.7184 11.5523 24.4125 19.2176 24.4125 19.2176C24.4125 19.2176 27.3188 22.4871 26.1562 25.357Z" fill="url(#paint1_linear_598_8975)"/>
<path d="M17.5222 4.60156C27.7425 11.5523 24.4366 19.2176 24.4366 19.2176C24.4366 19.2176 27.3429 22.4992 26.1683 25.3691C26.1683 25.3691 24.9694 23.359 22.9593 23.359C21.0218 23.359 19.8835 25.3691 15.9843 25.3691C7.30186 25.3691 3.19678 18.1156 3.19678 18.1156C11.0194 23.2621 16.3597 19.6172 16.3597 19.6172C12.8358 17.5707 5.34014 7.78633 5.34014 7.78633C11.8671 13.3445 14.6886 14.8098 14.6886 14.8098C13.0054 13.4172 8.28271 6.61172 8.28271 6.61172C12.0608 10.4383 19.5687 15.7785 19.5687 15.7785C21.6999 9.86914 17.5222 4.60156 17.5222 4.60156Z" fill="white"/>
<defs>
<linearGradient id="paint0_linear_598_8975" x1="18.4413" y1="-1.10619" x2="12.5843" y2="32.1099" gradientUnits="userSpaceOnUse">
<stop stop-color="#FAAE42"/>
<stop offset="1" stop-color="#EF3E31"/>
</linearGradient>
<linearGradient id="paint1_linear_598_8975" x1="15.8163" y1="0.500844" x2="11.5297" y2="24.8113" gradientUnits="userSpaceOnUse">
<stop stop-color="#E39F3A"/>
<stop offset="1" stop-color="#D33929"/>
</linearGradient>
</defs>
</svg>
