<svg width="31" height="31" viewBox="0 0 31 31" fill="none" xmlns="http://www.w3.org/2000/svg">
<g clip-path="url(#clip0_316_4939)">
<path d="M15.3688 0.00866699C7.518 0.00866699 8.00819 3.41322 8.00819 3.41322L8.01691 6.94044H15.5087V7.9994H5.04127C5.04127 7.9994 0.0175781 7.42966 0.0175781 15.351C0.0175781 23.2726 4.40238 22.9917 4.40238 22.9917H7.01922V19.3157C7.01922 19.3157 6.87814 14.9309 11.334 14.9309H18.7646C18.7646 14.9309 22.9393 14.9984 22.9393 10.8962V4.1135C22.9393 4.1135 23.5733 0.00866699 15.3688 0.00866699ZM11.2378 2.38065C11.4148 2.38049 11.5901 2.41524 11.7537 2.48292C11.9173 2.5506 12.066 2.64987 12.1911 2.77505C12.3163 2.90023 12.4156 3.04887 12.4833 3.21247C12.5509 3.37606 12.5857 3.55139 12.5855 3.72842C12.5857 3.90546 12.5509 4.08079 12.4833 4.24438C12.4156 4.40798 12.3163 4.55662 12.1911 4.6818C12.066 4.80698 11.9173 4.90625 11.7537 4.97393C11.5901 5.04161 11.4148 5.07636 11.2378 5.0762C11.0607 5.07636 10.8854 5.04161 10.7218 4.97393C10.5582 4.90625 10.4096 4.80698 10.2844 4.6818C10.1592 4.55662 10.0599 4.40798 9.99226 4.24438C9.92458 4.08079 9.88983 3.90546 9.88999 3.72842C9.88983 3.55139 9.92458 3.37606 9.99226 3.21247C10.0599 3.04887 10.1592 2.90023 10.2844 2.77505C10.4096 2.64987 10.5582 2.5506 10.7218 2.48292C10.8854 2.41524 11.0607 2.38049 11.2378 2.38065Z" fill="url(#paint0_linear_316_4939)"/>
<path d="M15.5918 30.773C23.4425 30.773 22.9523 27.3685 22.9523 27.3685L22.9436 23.8414H15.4517V22.7824H25.9191C25.9191 22.7824 30.9428 23.3522 30.9428 15.4306C30.9428 7.50911 26.558 7.79005 26.558 7.79005H23.9412V11.4659C23.9412 11.4659 24.0823 15.8507 19.6264 15.8507H12.1958C12.1958 15.8507 8.02112 15.7832 8.02112 19.8855V26.6683C8.02112 26.6683 7.3872 30.773 15.5917 30.773H15.5918ZM19.7228 28.4013C19.5457 28.4015 19.3704 28.3667 19.2068 28.299C19.0432 28.2314 18.8946 28.1321 18.7694 28.0069C18.6442 27.8817 18.5449 27.7331 18.4773 27.5695C18.4096 27.4059 18.3748 27.2306 18.375 27.0535C18.3748 26.8765 18.4096 26.7011 18.4772 26.5375C18.5449 26.3739 18.6442 26.2253 18.7694 26.1001C18.8945 25.9749 19.0432 25.8756 19.2068 25.8079C19.3704 25.7402 19.5457 25.7055 19.7228 25.7056C19.8998 25.7055 20.0751 25.7402 20.2387 25.8079C20.4023 25.8756 20.551 25.9748 20.6762 26.1C20.8013 26.2252 20.9006 26.3739 20.9683 26.5374C21.036 26.701 21.0707 26.8764 21.0705 27.0534C21.0707 27.2304 21.036 27.4058 20.9683 27.5694C20.9006 27.733 20.8013 27.8816 20.6762 28.0068C20.551 28.132 20.4023 28.2312 20.2387 28.2989C20.0751 28.3666 19.8998 28.4015 19.7228 28.4013Z" fill="url(#paint1_linear_316_4939)"/>
</g>
<defs>
<linearGradient id="paint0_linear_316_4939" x1="297.207" y1="276.716" x2="1829.76" y2="1793.98" gradientUnits="userSpaceOnUse">
<stop stop-color="#387EB8"/>
<stop offset="1" stop-color="#366994"/>
</linearGradient>
<linearGradient id="paint1_linear_316_4939" x1="446.674" y1="480.781" x2="2092.46" y2="2036.6" gradientUnits="userSpaceOnUse">
<stop stop-color="#FFE052"/>
<stop offset="1" stop-color="#FFC331"/>
</linearGradient>
<clipPath id="clip0_316_4939">
<rect width="31" height="30.8789" fill="white"/>
</clipPath>
</defs>
</svg>
