<svg width="31" height="42" viewBox="0 0 31 42" fill="none" xmlns="http://www.w3.org/2000/svg">
<g clip-path="url(#clip0_598_9030)">
<path d="M9.99657 32.3893C9.99657 32.3893 8.39838 33.3187 11.134 33.6332C14.4482 34.0112 16.142 33.9571 19.7943 33.2658C19.7943 33.2658 20.7545 33.8678 22.0954 34.3894C13.9081 37.8983 3.56577 34.1861 9.99657 32.3893ZM8.99609 27.8102C8.99609 27.8102 7.20354 29.1372 9.94123 29.4203C13.4815 29.7855 16.2773 29.8154 21.1153 28.8839C21.1153 28.8839 21.7844 29.5622 22.8366 29.9333C12.9376 32.8279 1.91187 30.1615 8.99609 27.8102Z" fill="#5382A1"/>
<path d="M17.4304 20.0428C19.4479 22.3654 16.9004 24.4555 16.9004 24.4555C16.9004 24.4555 22.0228 21.8111 19.6703 18.4997C17.4732 15.4118 15.7882 13.8773 24.9098 8.58722C24.9098 8.58722 10.5919 12.1632 17.4304 20.0428Z" fill="#E76F00"/>
<path d="M28.2588 35.7762C28.2588 35.7762 29.4416 36.7506 26.9562 37.5045C22.2304 38.9362 7.28674 39.3685 3.1354 37.5616C1.64316 36.9125 4.44164 36.0116 5.32187 35.8224C6.23988 35.6233 6.76458 35.6605 6.76458 35.6605C5.10499 34.4914 -3.96227 37.9561 2.1589 38.9482C18.852 41.6554 32.5888 37.7293 28.2588 35.7762ZM10.7652 23.0659C10.7652 23.0659 3.16398 24.8714 8.07348 25.5269C10.1464 25.8045 14.2787 25.7417 18.1279 25.4191C21.2737 25.1539 24.4324 24.5896 24.4324 24.5896C24.4324 24.5896 23.3232 25.0647 22.5207 25.6126C14.8017 27.6428 -0.110034 26.6984 4.18286 24.6217C7.81337 22.8668 10.7652 23.0659 10.7652 23.0659ZM24.401 30.6878C32.2479 26.6103 28.6198 22.692 26.0875 23.22C25.4668 23.349 25.1901 23.4609 25.1901 23.4609C25.1901 23.4609 25.4205 23.1001 25.8606 22.9439C30.8702 21.1825 34.7231 28.1384 24.2434 30.8933C24.2434 30.8934 24.3648 30.7849 24.401 30.6878Z" fill="#5382A1"/>
<path d="M19.6703 0.0449209C19.6703 0.0449209 24.016 4.39219 15.5486 11.0767C8.7588 16.439 14.0003 19.4963 15.5459 22.9895C11.5825 19.4136 8.67379 16.2657 10.6252 13.3359C13.4892 9.03504 21.4236 6.95005 19.6703 0.0449209Z" fill="#E76F00"/>
<path d="M11.5364 41.7368C19.0683 42.219 30.6344 41.4693 30.9083 37.9054C30.9083 37.9054 30.3818 39.2566 24.6836 40.3295C18.2549 41.5392 10.3262 41.398 5.62354 40.6226C5.62366 40.6226 6.58611 41.4194 11.5364 41.7368Z" fill="#5382A1"/>
</g>
<defs>
<clipPath id="clip0_598_9030">
<rect width="31" height="41.8984" fill="white"/>
</clipPath>
</defs>
</svg>
