<svg width="31" height="31" viewBox="0 0 31 31" fill="none" xmlns="http://www.w3.org/2000/svg">
<g clip-path="url(#clip0_316_4918)">
<path d="M31 24.0095C30.5488 24.1802 30.0508 24.1798 29.5999 24.0085C29.149 23.8371 28.7763 23.5067 28.5523 23.0795L24.0961 16.917L23.4502 16.0554L18.2797 23.0873C18.0691 23.4965 17.7167 23.8151 17.2883 23.9834C16.86 24.1517 16.3849 24.1582 15.9521 24.0018L22.6145 15.0634L16.4171 6.98922C16.8627 6.82863 17.3501 6.8265 17.7971 6.98319C18.2441 7.13988 18.6234 7.44581 18.8713 7.84947L23.4903 14.0882L28.1351 7.8753C28.3473 7.47332 28.6998 7.16332 29.1256 7.00424C29.5514 6.84516 30.0208 6.84809 30.4446 7.01247L28.0395 10.2042L24.7819 14.4447C24.6915 14.5254 24.6191 14.6243 24.5695 14.735C24.5199 14.8456 24.4943 14.9654 24.4943 15.0867C24.4943 15.2079 24.5199 15.3278 24.5695 15.4384C24.6191 15.549 24.6915 15.6479 24.7819 15.7286L30.9871 24.0108L31 24.0095ZM0.00259883 14.9523L0.545099 12.2721C2.03568 6.97243 8.11168 4.76755 12.2915 8.04838C14.7392 9.97168 15.3502 12.6945 15.2301 15.7635H1.44152C1.21806 21.2441 5.17314 24.5533 10.23 22.8625C11.0498 22.5674 11.7836 22.0736 12.3656 21.4253C12.9476 20.777 13.3598 19.9944 13.5651 19.1477C13.8325 18.2874 14.2729 18.1402 15.0815 18.3882C14.9468 19.4375 14.5758 20.4426 13.9966 21.3279C13.4174 22.2132 12.6449 22.9556 11.7374 23.4993C10.2383 24.3193 8.51833 24.6443 6.8234 24.4278C5.12848 24.2114 3.54538 23.4646 2.30047 22.2942C1.06955 20.9087 0.325614 19.1586 0.18214 17.3109C0.18214 17.0074 0.0788072 16.7232 0.00905716 16.4507C0.00276937 15.9517 -0.000244586 15.4527 1.54952e-05 14.9536L0.00259883 14.9523ZM1.45831 14.5829H13.9281C13.8506 10.6098 11.3434 7.79134 7.99931 7.76551C4.27672 7.71384 1.61331 10.4703 1.44927 14.5648L1.45831 14.5829Z" fill="black"/>
</g>
<defs>
<clipPath id="clip0_316_4918">
<rect width="31" height="31" fill="white"/>
</clipPath>
</defs>
</svg>
