<svg width="31" height="31" viewBox="0 0 31 31" fill="none" xmlns="http://www.w3.org/2000/svg">
<path d="M16.0227 12.2672H18.7933V15.0998H20.1942C20.8493 15.0968 21.4997 14.9879 22.12 14.7772C22.4458 14.6694 22.7595 14.5278 23.0558 14.3549C22.6767 13.83 22.4519 13.2095 22.4068 12.5636C22.2902 11.621 22.5323 10.6691 23.0849 9.89666L23.3755 9.55954L23.7223 9.83854C24.642 10.5128 25.2651 11.5168 25.4613 12.6402C26.5305 12.3117 27.6863 12.4193 28.6765 12.9395L29.0573 13.1584L28.8567 13.5459C28.4511 14.2289 27.8518 14.776 27.1349 15.118C26.418 15.46 25.6157 15.5814 24.8296 15.467C22.4271 21.4422 17.2046 24.271 10.8709 24.271C7.59847 24.271 4.59729 23.0474 2.88744 20.1451L2.85935 20.0976L2.61522 19.5948C2.05214 18.3144 1.83213 16.9095 1.97682 15.5183L2.01557 15.0989H4.38416V12.2672H7.15575V9.49366H12.698V6.72498H16.0227V12.2672Z" fill="#0096E6"/>
<path d="M11.6306 23.7993C10.2752 23.2217 9.18844 22.1526 8.58875 20.8068C7.87224 20.9985 7.13664 21.1099 6.3955 21.1391C6.07258 21.1572 5.73514 21.1662 5.38316 21.1662C4.97499 21.1662 4.54519 21.1542 4.09375 21.1304C4.9654 22.0379 6.02217 22.7472 7.19227 23.21C8.36237 23.6729 9.61839 23.8785 10.875 23.8128C11.1282 23.8128 11.38 23.8083 11.6306 23.7993ZM6.85856 12.9289H7.05231V14.9313H6.85856V12.9289ZM6.49431 12.9289H6.68806V14.9313H6.49044V12.9289H6.49431ZM6.13006 12.9289H6.32381V14.9313H6.13006V12.9289ZM5.76581 12.9289H5.95956V14.9313H5.76581V12.9289ZM5.40156 12.9289H5.59531V14.9313H5.40156V12.9289ZM5.04506 12.9289H5.23881V14.9313H5.04506V12.9289ZM4.84356 12.7294H7.248V15.1309H4.84356V12.7294ZM7.61322 9.95776H10.0157V12.3593H7.61709L7.61322 9.95776ZM9.62531 10.1583H9.81906V12.1597H9.62531V10.1583ZM9.26106 10.1583H9.45481V12.1597H9.26106V10.1583ZM8.89681 10.1583H9.09056V12.1597H8.89681V10.1583ZM8.53256 10.1583H8.72631V12.1597H8.53256V10.1583ZM8.16831 10.1583H8.36206V12.1597H8.16831V10.1583ZM7.81181 10.1583H8.00556V12.1597H7.81181V10.1583ZM7.61128 12.7284H10.0138V15.1309H7.61709V12.7294L7.61128 12.7284ZM9.62337 12.9289H9.81712V14.9313H9.62337V12.9289ZM9.25912 12.9289H9.45288V14.9313H9.25912V12.9289ZM8.89488 12.9289H9.08862V14.9313H8.89488V12.9289ZM8.53062 12.9289H8.72437V14.9313H8.53062V12.9289ZM8.16638 12.9289H8.36013V14.9313H8.16638V12.9289ZM7.80988 12.9289H8.00362V14.9313H7.80988V12.9289ZM10.3809 12.7284H12.7873V15.1309H10.3848V12.7294L10.3809 12.7284ZM12.3921 12.9289H12.5936V14.9313H12.3998L12.3921 12.9289ZM12.0278 12.9289H12.2216V14.9313H12.0278V12.9289ZM11.6636 12.9289H11.8573V14.9313H11.6636V12.9289ZM11.2993 12.9289H11.4931V14.9313H11.2993V12.9289ZM10.9351 12.9289H11.1288V14.9313H10.9351V12.9289ZM10.5786 12.9289H10.7723V14.9313H10.5786V12.9289ZM10.379 9.95776H12.7873V12.3593H10.3848V9.95776H10.379ZM12.3901 10.1583H12.5936V12.1597H12.3998L12.3901 10.1583ZM12.0259 10.1583H12.2196V12.1597H12.0259V10.1583ZM11.6616 10.1583H11.8554V12.1597H11.6616V10.1583ZM11.2974 10.1583H11.4911V12.1597H11.2974V10.1583ZM10.9331 10.1583H11.1269V12.1597H10.9331V10.1583ZM10.5766 10.1583H10.7704V12.1597H10.5766V10.1583ZM13.1477 12.7284H15.5492V15.1309H13.1467V12.7294L13.1477 12.7284ZM15.1588 12.9289H15.3526V14.9313H15.1588V12.9289ZM14.7946 12.9289H14.9883V14.9313H14.7946V12.9289ZM14.4303 12.9289H14.6241V14.9313H14.4303V12.9289ZM14.0661 12.9289H14.2598V14.9313H14.0661V12.9289ZM13.7018 12.9289H13.8956V14.9313H13.7018V12.9289ZM13.3453 12.9289H13.5313V14.9313H13.3376V12.9289H13.3453ZM13.1457 9.95776H15.5473V12.3593H13.1448L13.1457 9.95776ZM15.1569 10.1583H15.3506V12.1597H15.1569V10.1583ZM14.7926 10.1583H14.9864V12.1597H14.7926V10.1583ZM14.4284 10.1583H14.6221V12.1597H14.4284V10.1583ZM14.0641 10.1583H14.2579V12.1597H14.0641V10.1583ZM13.6999 10.1583H13.8936V12.1597H13.6999V10.1583ZM13.3434 10.1583H13.5294V12.1597H13.3356V10.1583H13.3434ZM13.1438 7.18713H15.5453V9.5906H13.1428L13.1438 7.18713ZM15.1549 7.3867H15.3487V9.38813H15.1549V7.3867ZM14.7907 7.3867H14.9844V9.38813H14.7907V7.3867ZM14.4264 7.3867H14.6202V9.38813H14.4264V7.3867ZM14.0622 7.3867H14.2559V9.38813H14.0622V7.3867ZM13.6979 7.3867H13.8917V9.38813H13.6979V7.3867ZM13.3414 7.3867H13.5274V9.38813H13.3337V7.3867H13.3414ZM15.9125 12.7284H18.314V15.1309H15.9115V12.7294L15.9125 12.7284ZM17.9236 12.9289H18.1125V14.9313H17.9188V12.9289H17.9236ZM17.5594 12.9289H17.7589V14.9313H17.5594V12.9289ZM17.1951 12.9289H17.3889V14.9313H17.1951V12.9289ZM16.8309 12.9289H17.0246V14.9313H16.8309V12.9289ZM16.4666 12.9289H16.6604V14.9313H16.4618V12.9289H16.4666ZM16.1101 12.9289H16.3039V14.9313H16.1159V12.9289H16.1101ZM9.86944 19.0243C10.0005 19.0243 10.1286 19.0632 10.2376 19.136C10.3465 19.2088 10.4315 19.3123 10.4816 19.4333C10.5318 19.5544 10.5449 19.6876 10.5193 19.8162C10.4938 19.9447 10.4307 20.0628 10.338 20.1555C10.2453 20.2481 10.1272 20.3112 9.99871 20.3368C9.87017 20.3624 9.73694 20.3493 9.61586 20.2991C9.49478 20.2489 9.3913 20.164 9.31849 20.055C9.24568 19.9461 9.20681 19.818 9.20681 19.6869C9.20681 19.5112 9.27662 19.3426 9.40089 19.2184C9.52516 19.0941 9.6937 19.0243 9.86944 19.0243ZM9.86944 19.2122C9.92808 19.2122 9.98622 19.223 10.0409 19.2442C10.0149 19.2591 9.99265 19.2798 9.97597 19.3047C9.9593 19.3296 9.94863 19.358 9.94481 19.3878C9.94099 19.4175 9.94413 19.4477 9.95396 19.476C9.9638 19.5043 9.98007 19.53 10.0015 19.551C10.0229 19.5719 10.0489 19.5876 10.0775 19.5968C10.106 19.606 10.1363 19.6085 10.1659 19.604C10.1955 19.5996 10.2237 19.5883 10.2483 19.571C10.2728 19.5538 10.293 19.5311 10.3073 19.5048C10.3468 19.5987 10.3551 19.7029 10.3308 19.8018C10.3066 19.9008 10.2511 19.9893 10.1727 20.0543C10.0942 20.1194 9.99691 20.1574 9.89517 20.1629C9.79342 20.1683 9.69262 20.1409 9.60766 20.0846C9.52271 20.0284 9.45812 19.9463 9.42343 19.8504C9.38874 19.7546 9.3858 19.6502 9.41505 19.5526C9.44429 19.455 9.50417 19.3694 9.58582 19.3084C9.66748 19.2475 9.76658 19.2144 9.86847 19.2142L9.86944 19.2122Z" fill="white"/>
</svg>
