<svg width="31" height="31" viewBox="0 0 31 31" fill="none" xmlns="http://www.w3.org/2000/svg">
<path d="M16.0227 12.2672H18.7933V15.0998H20.1942C20.8493 15.0968 21.4997 14.9879 22.12 14.7772C22.4458 14.6694 22.7595 14.5278 23.0558 14.3549C22.6767 13.83 22.4519 13.2095 22.4068 12.5636C22.2902 11.621 22.5323 10.6691 23.0849 9.89666L23.3755 9.55954L23.7223 9.83854C24.642 10.5128 25.2651 11.5168 25.4613 12.6402C26.5305 12.3117 27.6863 12.4193 28.6765 12.9395L29.0573 13.1584L28.8567 13.5459C28.4511 14.2289 27.8518 14.776 27.1349 15.118C26.418 15.46 25.6157 15.5814 24.8296 15.467C22.4271 21.4422 17.2046 24.271 10.8709 24.271C7.59847 24.271 4.59729 23.0474 2.88744 20.1451L2.85935 20.0976L2.61522 19.5948C2.05214 18.3144 1.83213 16.9095 1.97682 15.5183L2.01557 15.0989H4.38416V12.2672H7.15575V9.49366H12.698V6.72498H16.0227V12.2672Z" fill="#0096E6"/>
<path d="M11.6304 23.7993C10.2749 23.2217 9.18819 22.1526 8.58851 20.8068C7.872 20.9985 7.13639 21.1099 6.39526 21.1391C6.07234 21.1572 5.73489 21.1662 5.38291 21.1662C4.97475 21.1662 4.54494 21.1542 4.09351 21.1304C4.96515 22.0379 6.02192 22.7472 7.19202 23.21C8.36213 23.6729 9.61815 23.8785 10.8748 23.8128C11.1279 23.8128 11.3798 23.8083 11.6304 23.7993ZM6.85832 12.9289H7.05207V14.9313H6.85832V12.9289ZM6.49407 12.9289H6.68782V14.9313H6.49019V12.9289H6.49407ZM6.12982 12.9289H6.32357V14.9313H6.12982V12.9289ZM5.76557 12.9289H5.95932V14.9313H5.76557V12.9289ZM5.40132 12.9289H5.59507V14.9313H5.40132V12.9289ZM5.04482 12.9289H5.23857V14.9313H5.04482V12.9289ZM4.84332 12.7294H7.24776V15.1309H4.84332V12.7294ZM7.61297 9.95776H10.0155V12.3593H7.61685L7.61297 9.95776ZM9.62507 10.1583H9.81882V12.1597H9.62507V10.1583ZM9.26082 10.1583H9.45457V12.1597H9.26082V10.1583ZM8.89657 10.1583H9.09032V12.1597H8.89657V10.1583ZM8.53232 10.1583H8.72607V12.1597H8.53232V10.1583ZM8.16807 10.1583H8.36182V12.1597H8.16807V10.1583ZM7.81157 10.1583H8.00532V12.1597H7.81157V10.1583ZM7.61104 12.7284H10.0135V15.1309H7.61685V12.7294L7.61104 12.7284ZM9.62313 12.9289H9.81688V14.9313H9.62313V12.9289ZM9.25888 12.9289H9.45263V14.9313H9.25888V12.9289ZM8.89463 12.9289H9.08838V14.9313H8.89463V12.9289ZM8.53038 12.9289H8.72413V14.9313H8.53038V12.9289ZM8.16613 12.9289H8.35988V14.9313H8.16613V12.9289ZM7.80963 12.9289H8.00338V14.9313H7.80963V12.9289ZM10.3807 12.7284H12.7871V15.1309H10.3846V12.7294L10.3807 12.7284ZM12.3918 12.9289H12.5933V14.9313H12.3996L12.3918 12.9289ZM12.0276 12.9289H12.2213V14.9313H12.0276V12.9289ZM11.6633 12.9289H11.8571V14.9313H11.6633V12.9289ZM11.2991 12.9289H11.4928V14.9313H11.2991V12.9289ZM10.9348 12.9289H11.1286V14.9313H10.9348V12.9289ZM10.5783 12.9289H10.7721V14.9313H10.5783V12.9289ZM10.3788 9.95776H12.7871V12.3593H10.3846V9.95776H10.3788ZM12.3899 10.1583H12.5933V12.1597H12.3996L12.3899 10.1583ZM12.0256 10.1583H12.2194V12.1597H12.0256V10.1583ZM11.6614 10.1583H11.8551V12.1597H11.6614V10.1583ZM11.2971 10.1583H11.4909V12.1597H11.2971V10.1583ZM10.9329 10.1583H11.1266V12.1597H10.9329V10.1583ZM10.5764 10.1583H10.7701V12.1597H10.5764V10.1583ZM13.1474 12.7284H15.549V15.1309H13.1465V12.7294L13.1474 12.7284ZM15.1586 12.9289H15.3523V14.9313H15.1586V12.9289ZM14.7943 12.9289H14.9881V14.9313H14.7943V12.9289ZM14.4301 12.9289H14.6238V14.9313H14.4301V12.9289ZM14.0658 12.9289H14.2596V14.9313H14.0658V12.9289ZM13.7016 12.9289H13.8953V14.9313H13.7016V12.9289ZM13.3451 12.9289H13.5311V14.9313H13.3373V12.9289H13.3451ZM13.1455 9.95776H15.547V12.3593H13.1445L13.1455 9.95776ZM15.1566 10.1583H15.3504V12.1597H15.1566V10.1583ZM14.7924 10.1583H14.9861V12.1597H14.7924V10.1583ZM14.4281 10.1583H14.6219V12.1597H14.4281V10.1583ZM14.0639 10.1583H14.2576V12.1597H14.0639V10.1583ZM13.6996 10.1583H13.8934V12.1597H13.6996V10.1583ZM13.3431 10.1583H13.5291V12.1597H13.3354V10.1583H13.3431ZM13.1436 7.18713H15.5451V9.5906H13.1426L13.1436 7.18713ZM15.1547 7.3867H15.3484V9.38813H15.1547V7.3867ZM14.7904 7.3867H14.9842V9.38813H14.7904V7.3867ZM14.4262 7.3867H14.6199V9.38813H14.4262V7.3867ZM14.0619 7.3867H14.2557V9.38813H14.0619V7.3867ZM13.6977 7.3867H13.8914V9.38813H13.6977V7.3867ZM13.3412 7.3867H13.5272V9.38813H13.3334V7.3867H13.3412ZM15.9123 12.7284H18.3138V15.1309H15.9113V12.7294L15.9123 12.7284ZM17.9234 12.9289H18.1123V14.9313H17.9185V12.9289H17.9234ZM17.5591 12.9289H17.7587V14.9313H17.5591V12.9289ZM17.1949 12.9289H17.3886V14.9313H17.1949V12.9289ZM16.8306 12.9289H17.0244V14.9313H16.8306V12.9289ZM16.4664 12.9289H16.6601V14.9313H16.4615V12.9289H16.4664ZM16.1099 12.9289H16.3036V14.9313H16.1157V12.9289H16.1099ZM9.86919 19.0243C10.0002 19.0243 10.1284 19.0632 10.2373 19.136C10.3463 19.2088 10.4312 19.3123 10.4814 19.4333C10.5315 19.5544 10.5447 19.6876 10.5191 19.8162C10.4935 19.9447 10.4304 20.0628 10.3377 20.1555C10.2451 20.2481 10.127 20.3112 9.99846 20.3368C9.86993 20.3624 9.7367 20.3493 9.61562 20.2991C9.49454 20.2489 9.39105 20.164 9.31824 20.055C9.24543 19.9461 9.20657 19.818 9.20657 19.6869C9.20657 19.5112 9.27638 19.3426 9.40065 19.2184C9.52491 19.0941 9.69345 19.0243 9.86919 19.0243ZM9.86919 19.2122C9.92783 19.2122 9.98598 19.223 10.0407 19.2442C10.0146 19.2591 9.9924 19.2798 9.97573 19.3047C9.95905 19.3296 9.94839 19.358 9.94457 19.3878C9.94075 19.4175 9.94388 19.4477 9.95372 19.476C9.96355 19.5043 9.97983 19.53 10.0013 19.551C10.0227 19.5719 10.0487 19.5876 10.0772 19.5968C10.1057 19.606 10.136 19.6085 10.1657 19.604C10.1953 19.5996 10.2235 19.5883 10.248 19.571C10.2726 19.5538 10.2928 19.5311 10.3071 19.5048C10.3466 19.5987 10.3548 19.7029 10.3306 19.8018C10.3063 19.9008 10.2509 19.9893 10.1724 20.0543C10.094 20.1194 9.99667 20.1574 9.89492 20.1629C9.79317 20.1683 9.69237 20.1409 9.60742 20.0846C9.52247 20.0284 9.45787 19.9463 9.42318 19.8504C9.3885 19.7546 9.38556 19.6502 9.4148 19.5526C9.44405 19.455 9.50392 19.3694 9.58558 19.3084C9.66723 19.2475 9.76633 19.2144 9.86822 19.2142L9.86919 19.2122Z" fill="white"/>
</svg>
