<svg width="31" height="31" viewBox="0 0 31 31" fill="none" xmlns="http://www.w3.org/2000/svg">
<path d="M13.693 3.875H17.5341V21.4762C15.8945 21.8127 14.2256 21.9863 12.5519 21.9945C7.86117 21.9897 5.41992 19.8943 5.41992 15.8701C5.41992 11.9951 8.00939 9.47631 12.0229 9.47631C12.5858 9.46534 13.1476 9.53051 13.693 9.67006V3.875ZM13.693 12.7313C13.2755 12.5936 12.8374 12.528 12.3978 12.5376C10.4603 12.5376 9.33367 13.7223 9.33367 15.7984C9.33367 17.8202 10.4061 18.9362 12.3736 18.9362C12.8152 18.9361 13.2562 18.9037 13.693 18.8393V12.7362V12.7313Z" fill="#44B78B"/>
<path d="M23.637 9.74469V18.5603C23.637 21.5954 23.4093 23.0543 22.7428 24.3128C22.0626 25.5923 20.9503 26.5889 19.6041 27.125L16.041 25.4462C17.3355 25.0029 18.4196 24.0955 19.0839 22.8993C19.6322 21.8134 19.8056 20.555 19.8056 17.2448V9.74469H23.637ZM19.8017 3.89441H23.6418V7.79653H19.8017V3.89441Z" fill="#44B78B"/>
</svg>
